<mxfile host="app.diagrams.net" modified="2024-06-01T18:45:41.256Z" agent="Mozilla/5.0 (Windows NT 10.0; Win64; x64) AppleWebKit/537.36 (KHTML, like Gecko) Chrome/125.0.0.0 Safari/537.36" etag="CXU9KCH2Jf4JUaLVAjCm" version="24.4.13" type="github">
  <diagram id="C5RBs43oDa-KdzZeNtuy" name="Page-1">
    <mxGraphModel dx="5123" dy="2600" grid="1" gridSize="10" guides="1" tooltips="1" connect="1" arrows="1" fold="1" page="1" pageScale="1" pageWidth="827" pageHeight="1169" math="0" shadow="0">
      <root>
        <mxCell id="WIyWlLk6GJQsqaUBKTNV-0" />
        <mxCell id="WIyWlLk6GJQsqaUBKTNV-1" parent="WIyWlLk6GJQsqaUBKTNV-0" />
        <mxCell id="Gd-mYLwhgfqLwhZGRjHQ-97" value="&lt;font style=&quot;font-size: 18px;&quot;&gt;SlotAbstractClass&lt;/font&gt;" style="swimlane;fontStyle=1;align=center;verticalAlign=top;childLayout=stackLayout;horizontal=1;startSize=26;horizontalStack=0;resizeParent=1;resizeParentMax=0;resizeLast=0;collapsible=1;marginBottom=0;whiteSpace=wrap;html=1;" parent="WIyWlLk6GJQsqaUBKTNV-1" vertex="1">
          <mxGeometry x="1900" y="222" width="440" height="552" as="geometry" />
        </mxCell>
        <mxCell id="Gd-mYLwhgfqLwhZGRjHQ-98" value="+ item: GameObject" style="text;strokeColor=none;fillColor=none;align=left;verticalAlign=top;spacingLeft=4;spacingRight=4;overflow=hidden;rotatable=0;points=[[0,0.5],[1,0.5]];portConstraint=eastwest;whiteSpace=wrap;html=1;" parent="Gd-mYLwhgfqLwhZGRjHQ-97" vertex="1">
          <mxGeometry y="26" width="440" height="26" as="geometry" />
        </mxCell>
        <mxCell id="Gd-mYLwhgfqLwhZGRjHQ-101" value="+ id: Integer" style="text;strokeColor=none;fillColor=none;align=left;verticalAlign=top;spacingLeft=4;spacingRight=4;overflow=hidden;rotatable=0;points=[[0,0.5],[1,0.5]];portConstraint=eastwest;whiteSpace=wrap;html=1;" parent="Gd-mYLwhgfqLwhZGRjHQ-97" vertex="1">
          <mxGeometry y="52" width="440" height="24" as="geometry" />
        </mxCell>
        <mxCell id="Gd-mYLwhgfqLwhZGRjHQ-102" value="+ type: string" style="text;strokeColor=none;fillColor=none;align=left;verticalAlign=top;spacingLeft=4;spacingRight=4;overflow=hidden;rotatable=0;points=[[0,0.5],[1,0.5]];portConstraint=eastwest;whiteSpace=wrap;html=1;" parent="Gd-mYLwhgfqLwhZGRjHQ-97" vertex="1">
          <mxGeometry y="76" width="440" height="24" as="geometry" />
        </mxCell>
        <mxCell id="Gd-mYLwhgfqLwhZGRjHQ-103" value="+ description: string" style="text;strokeColor=none;fillColor=none;align=left;verticalAlign=top;spacingLeft=4;spacingRight=4;overflow=hidden;rotatable=0;points=[[0,0.5],[1,0.5]];portConstraint=eastwest;whiteSpace=wrap;html=1;" parent="Gd-mYLwhgfqLwhZGRjHQ-97" vertex="1">
          <mxGeometry y="100" width="440" height="24" as="geometry" />
        </mxCell>
        <mxCell id="Gd-mYLwhgfqLwhZGRjHQ-105" value="+ empty: bool" style="text;strokeColor=none;fillColor=none;align=left;verticalAlign=top;spacingLeft=4;spacingRight=4;overflow=hidden;rotatable=0;points=[[0,0.5],[1,0.5]];portConstraint=eastwest;whiteSpace=wrap;html=1;" parent="Gd-mYLwhgfqLwhZGRjHQ-97" vertex="1">
          <mxGeometry y="124" width="440" height="24" as="geometry" />
        </mxCell>
        <mxCell id="Gd-mYLwhgfqLwhZGRjHQ-104" value="+ slotIconGO: Transform" style="text;strokeColor=none;fillColor=none;align=left;verticalAlign=top;spacingLeft=4;spacingRight=4;overflow=hidden;rotatable=0;points=[[0,0.5],[1,0.5]];portConstraint=eastwest;whiteSpace=wrap;html=1;" parent="Gd-mYLwhgfqLwhZGRjHQ-97" vertex="1">
          <mxGeometry y="148" width="440" height="24" as="geometry" />
        </mxCell>
        <mxCell id="Gd-mYLwhgfqLwhZGRjHQ-106" value="+ icon: Sprite" style="text;strokeColor=none;fillColor=none;align=left;verticalAlign=top;spacingLeft=4;spacingRight=4;overflow=hidden;rotatable=0;points=[[0,0.5],[1,0.5]];portConstraint=eastwest;whiteSpace=wrap;html=1;" parent="Gd-mYLwhgfqLwhZGRjHQ-97" vertex="1">
          <mxGeometry y="172" width="440" height="24" as="geometry" />
        </mxCell>
        <mxCell id="Gd-mYLwhgfqLwhZGRjHQ-114" value="+ lastClickTime: float" style="text;strokeColor=none;fillColor=none;align=left;verticalAlign=top;spacingLeft=4;spacingRight=4;overflow=hidden;rotatable=0;points=[[0,0.5],[1,0.5]];portConstraint=eastwest;whiteSpace=wrap;html=1;" parent="Gd-mYLwhgfqLwhZGRjHQ-97" vertex="1">
          <mxGeometry y="196" width="440" height="24" as="geometry" />
        </mxCell>
        <mxCell id="Gd-mYLwhgfqLwhZGRjHQ-113" value="+ doubleClickTimeThreshold: float" style="text;strokeColor=none;fillColor=none;align=left;verticalAlign=top;spacingLeft=4;spacingRight=4;overflow=hidden;rotatable=0;points=[[0,0.5],[1,0.5]];portConstraint=eastwest;whiteSpace=wrap;html=1;" parent="Gd-mYLwhgfqLwhZGRjHQ-97" vertex="1">
          <mxGeometry y="220" width="440" height="24" as="geometry" />
        </mxCell>
        <mxCell id="Gd-mYLwhgfqLwhZGRjHQ-112" value="+ maxCount: float" style="text;strokeColor=none;fillColor=none;align=left;verticalAlign=top;spacingLeft=4;spacingRight=4;overflow=hidden;rotatable=0;points=[[0,0.5],[1,0.5]];portConstraint=eastwest;whiteSpace=wrap;html=1;" parent="Gd-mYLwhgfqLwhZGRjHQ-97" vertex="1">
          <mxGeometry y="244" width="440" height="24" as="geometry" />
        </mxCell>
        <mxCell id="Gd-mYLwhgfqLwhZGRjHQ-110" value="+ itemHolder: GameObject" style="text;strokeColor=none;fillColor=none;align=left;verticalAlign=top;spacingLeft=4;spacingRight=4;overflow=hidden;rotatable=0;points=[[0,0.5],[1,0.5]];portConstraint=eastwest;whiteSpace=wrap;html=1;" parent="Gd-mYLwhgfqLwhZGRjHQ-97" vertex="1">
          <mxGeometry y="268" width="440" height="24" as="geometry" />
        </mxCell>
        <mxCell id="Gd-mYLwhgfqLwhZGRjHQ-111" value="+ furnace: GameObject" style="text;strokeColor=none;fillColor=none;align=left;verticalAlign=top;spacingLeft=4;spacingRight=4;overflow=hidden;rotatable=0;points=[[0,0.5],[1,0.5]];portConstraint=eastwest;whiteSpace=wrap;html=1;" parent="Gd-mYLwhgfqLwhZGRjHQ-97" vertex="1">
          <mxGeometry y="292" width="440" height="24" as="geometry" />
        </mxCell>
        <mxCell id="Gd-mYLwhgfqLwhZGRjHQ-109" value="+ workBench: GameObject" style="text;strokeColor=none;fillColor=none;align=left;verticalAlign=top;spacingLeft=4;spacingRight=4;overflow=hidden;rotatable=0;points=[[0,0.5],[1,0.5]];portConstraint=eastwest;whiteSpace=wrap;html=1;" parent="Gd-mYLwhgfqLwhZGRjHQ-97" vertex="1">
          <mxGeometry y="316" width="440" height="24" as="geometry" />
        </mxCell>
        <mxCell id="Gd-mYLwhgfqLwhZGRjHQ-108" value="+ merchant: GameObject" style="text;strokeColor=none;fillColor=none;align=left;verticalAlign=top;spacingLeft=4;spacingRight=4;overflow=hidden;rotatable=0;points=[[0,0.5],[1,0.5]];portConstraint=eastwest;whiteSpace=wrap;html=1;" parent="Gd-mYLwhgfqLwhZGRjHQ-97" vertex="1">
          <mxGeometry y="340" width="440" height="24" as="geometry" />
        </mxCell>
        <mxCell id="tNMWOhQOn91rL2KLn048-3" value="+ defaultSprite: Sprite" style="text;strokeColor=none;fillColor=none;align=left;verticalAlign=top;spacingLeft=4;spacingRight=4;overflow=hidden;rotatable=0;points=[[0,0.5],[1,0.5]];portConstraint=eastwest;whiteSpace=wrap;html=1;" parent="Gd-mYLwhgfqLwhZGRjHQ-97" vertex="1">
          <mxGeometry y="364" width="440" height="24" as="geometry" />
        </mxCell>
        <mxCell id="Gd-mYLwhgfqLwhZGRjHQ-99" value="" style="line;strokeWidth=1;fillColor=none;align=left;verticalAlign=middle;spacingTop=-1;spacingLeft=3;spacingRight=3;rotatable=0;labelPosition=right;points=[];portConstraint=eastwest;strokeColor=inherit;" parent="Gd-mYLwhgfqLwhZGRjHQ-97" vertex="1">
          <mxGeometry y="388" width="440" height="8" as="geometry" />
        </mxCell>
        <mxCell id="Gd-mYLwhgfqLwhZGRjHQ-100" value="+ Start()" style="text;strokeColor=none;fillColor=none;align=left;verticalAlign=top;spacingLeft=4;spacingRight=4;overflow=hidden;rotatable=0;points=[[0,0.5],[1,0.5]];portConstraint=eastwest;whiteSpace=wrap;html=1;" parent="Gd-mYLwhgfqLwhZGRjHQ-97" vertex="1">
          <mxGeometry y="396" width="440" height="26" as="geometry" />
        </mxCell>
        <mxCell id="Gd-mYLwhgfqLwhZGRjHQ-115" value="+ OnPointerClick(pointerEvemtData: PointerEventData)" style="text;strokeColor=none;fillColor=none;align=left;verticalAlign=top;spacingLeft=4;spacingRight=4;overflow=hidden;rotatable=0;points=[[0,0.5],[1,0.5]];portConstraint=eastwest;whiteSpace=wrap;html=1;" parent="Gd-mYLwhgfqLwhZGRjHQ-97" vertex="1">
          <mxGeometry y="422" width="440" height="26" as="geometry" />
        </mxCell>
        <mxCell id="Gd-mYLwhgfqLwhZGRjHQ-116" value="+ abstract ActivateToolMeniuSlot()" style="text;strokeColor=none;fillColor=none;align=left;verticalAlign=top;spacingLeft=4;spacingRight=4;overflow=hidden;rotatable=0;points=[[0,0.5],[1,0.5]];portConstraint=eastwest;whiteSpace=wrap;html=1;" parent="Gd-mYLwhgfqLwhZGRjHQ-97" vertex="1">
          <mxGeometry y="448" width="440" height="26" as="geometry" />
        </mxCell>
        <mxCell id="Gd-mYLwhgfqLwhZGRjHQ-118" value="+ abstract ActivateResourceMenuSlot()" style="text;strokeColor=none;fillColor=none;align=left;verticalAlign=top;spacingLeft=4;spacingRight=4;overflow=hidden;rotatable=0;points=[[0,0.5],[1,0.5]];portConstraint=eastwest;whiteSpace=wrap;html=1;" parent="Gd-mYLwhgfqLwhZGRjHQ-97" vertex="1">
          <mxGeometry y="474" width="440" height="26" as="geometry" />
        </mxCell>
        <mxCell id="Gd-mYLwhgfqLwhZGRjHQ-117" value="+ abstract Action()" style="text;strokeColor=none;fillColor=none;align=left;verticalAlign=top;spacingLeft=4;spacingRight=4;overflow=hidden;rotatable=0;points=[[0,0.5],[1,0.5]];portConstraint=eastwest;whiteSpace=wrap;html=1;" parent="Gd-mYLwhgfqLwhZGRjHQ-97" vertex="1">
          <mxGeometry y="500" width="440" height="26" as="geometry" />
        </mxCell>
        <mxCell id="Gd-mYLwhgfqLwhZGRjHQ-119" value="+ UpdateSlot(iconita: Sprite)" style="text;strokeColor=none;fillColor=none;align=left;verticalAlign=top;spacingLeft=4;spacingRight=4;overflow=hidden;rotatable=0;points=[[0,0.5],[1,0.5]];portConstraint=eastwest;whiteSpace=wrap;html=1;" parent="Gd-mYLwhgfqLwhZGRjHQ-97" vertex="1">
          <mxGeometry y="526" width="440" height="26" as="geometry" />
        </mxCell>
        <mxCell id="Gd-mYLwhgfqLwhZGRjHQ-120" value="&lt;font style=&quot;font-size: 18px;&quot;&gt;InventorySlot&lt;/font&gt;" style="swimlane;fontStyle=1;align=center;verticalAlign=top;childLayout=stackLayout;horizontal=1;startSize=26;horizontalStack=0;resizeParent=1;resizeParentMax=0;resizeLast=0;collapsible=1;marginBottom=0;whiteSpace=wrap;html=1;" parent="WIyWlLk6GJQsqaUBKTNV-1" vertex="1">
          <mxGeometry x="1654" y="806" width="440" height="406" as="geometry" />
        </mxCell>
        <mxCell id="Gd-mYLwhgfqLwhZGRjHQ-121" value="+ toolBar: GameObject" style="text;strokeColor=none;fillColor=none;align=left;verticalAlign=top;spacingLeft=4;spacingRight=4;overflow=hidden;rotatable=0;points=[[0,0.5],[1,0.5]];portConstraint=eastwest;whiteSpace=wrap;html=1;" parent="Gd-mYLwhgfqLwhZGRjHQ-120" vertex="1">
          <mxGeometry y="26" width="440" height="26" as="geometry" />
        </mxCell>
        <mxCell id="Gd-mYLwhgfqLwhZGRjHQ-122" value="+ shieldSlot: GameObject" style="text;strokeColor=none;fillColor=none;align=left;verticalAlign=top;spacingLeft=4;spacingRight=4;overflow=hidden;rotatable=0;points=[[0,0.5],[1,0.5]];portConstraint=eastwest;whiteSpace=wrap;html=1;" parent="Gd-mYLwhgfqLwhZGRjHQ-120" vertex="1">
          <mxGeometry y="52" width="440" height="24" as="geometry" />
        </mxCell>
        <mxCell id="Gd-mYLwhgfqLwhZGRjHQ-123" value="+ helmetSlot: GameObject&amp;nbsp;" style="text;strokeColor=none;fillColor=none;align=left;verticalAlign=top;spacingLeft=4;spacingRight=4;overflow=hidden;rotatable=0;points=[[0,0.5],[1,0.5]];portConstraint=eastwest;whiteSpace=wrap;html=1;" parent="Gd-mYLwhgfqLwhZGRjHQ-120" vertex="1">
          <mxGeometry y="76" width="440" height="24" as="geometry" />
        </mxCell>
        <mxCell id="Gd-mYLwhgfqLwhZGRjHQ-124" value="+ chestPlateSlot: GameObject" style="text;strokeColor=none;fillColor=none;align=left;verticalAlign=top;spacingLeft=4;spacingRight=4;overflow=hidden;rotatable=0;points=[[0,0.5],[1,0.5]];portConstraint=eastwest;whiteSpace=wrap;html=1;" parent="Gd-mYLwhgfqLwhZGRjHQ-120" vertex="1">
          <mxGeometry y="100" width="440" height="24" as="geometry" />
        </mxCell>
        <mxCell id="Gd-mYLwhgfqLwhZGRjHQ-125" value="+ pantsSlot: GameObject" style="text;strokeColor=none;fillColor=none;align=left;verticalAlign=top;spacingLeft=4;spacingRight=4;overflow=hidden;rotatable=0;points=[[0,0.5],[1,0.5]];portConstraint=eastwest;whiteSpace=wrap;html=1;" parent="Gd-mYLwhgfqLwhZGRjHQ-120" vertex="1">
          <mxGeometry y="124" width="440" height="24" as="geometry" />
        </mxCell>
        <mxCell id="Gd-mYLwhgfqLwhZGRjHQ-126" value="+ bootsSlot: GameObject" style="text;strokeColor=none;fillColor=none;align=left;verticalAlign=top;spacingLeft=4;spacingRight=4;overflow=hidden;rotatable=0;points=[[0,0.5],[1,0.5]];portConstraint=eastwest;whiteSpace=wrap;html=1;" parent="Gd-mYLwhgfqLwhZGRjHQ-120" vertex="1">
          <mxGeometry y="148" width="440" height="24" as="geometry" />
        </mxCell>
        <mxCell id="Gd-mYLwhgfqLwhZGRjHQ-127" value="+ arrowsSlot: GameObject" style="text;strokeColor=none;fillColor=none;align=left;verticalAlign=top;spacingLeft=4;spacingRight=4;overflow=hidden;rotatable=0;points=[[0,0.5],[1,0.5]];portConstraint=eastwest;whiteSpace=wrap;html=1;" parent="Gd-mYLwhgfqLwhZGRjHQ-120" vertex="1">
          <mxGeometry y="172" width="440" height="24" as="geometry" />
        </mxCell>
        <mxCell id="Gd-mYLwhgfqLwhZGRjHQ-128" value="+ meniu1Slot: GameObject" style="text;strokeColor=none;fillColor=none;align=left;verticalAlign=top;spacingLeft=4;spacingRight=4;overflow=hidden;rotatable=0;points=[[0,0.5],[1,0.5]];portConstraint=eastwest;whiteSpace=wrap;html=1;" parent="Gd-mYLwhgfqLwhZGRjHQ-120" vertex="1">
          <mxGeometry y="196" width="440" height="24" as="geometry" />
        </mxCell>
        <mxCell id="Gd-mYLwhgfqLwhZGRjHQ-130" value="+ leftHandShield: GameObject" style="text;strokeColor=none;fillColor=none;align=left;verticalAlign=top;spacingLeft=4;spacingRight=4;overflow=hidden;rotatable=0;points=[[0,0.5],[1,0.5]];portConstraint=eastwest;whiteSpace=wrap;html=1;" parent="Gd-mYLwhgfqLwhZGRjHQ-120" vertex="1">
          <mxGeometry y="220" width="440" height="24" as="geometry" />
        </mxCell>
        <mxCell id="Gd-mYLwhgfqLwhZGRjHQ-131" value="+ player: GameObject" style="text;strokeColor=none;fillColor=none;align=left;verticalAlign=top;spacingLeft=4;spacingRight=4;overflow=hidden;rotatable=0;points=[[0,0.5],[1,0.5]];portConstraint=eastwest;whiteSpace=wrap;html=1;" parent="Gd-mYLwhgfqLwhZGRjHQ-120" vertex="1">
          <mxGeometry y="244" width="440" height="24" as="geometry" />
        </mxCell>
        <mxCell id="Gd-mYLwhgfqLwhZGRjHQ-135" value="" style="line;strokeWidth=1;fillColor=none;align=left;verticalAlign=middle;spacingTop=-1;spacingLeft=3;spacingRight=3;rotatable=0;labelPosition=right;points=[];portConstraint=eastwest;strokeColor=inherit;" parent="Gd-mYLwhgfqLwhZGRjHQ-120" vertex="1">
          <mxGeometry y="268" width="440" height="8" as="geometry" />
        </mxCell>
        <mxCell id="Gd-mYLwhgfqLwhZGRjHQ-136" value="+ Awake()" style="text;strokeColor=none;fillColor=none;align=left;verticalAlign=top;spacingLeft=4;spacingRight=4;overflow=hidden;rotatable=0;points=[[0,0.5],[1,0.5]];portConstraint=eastwest;whiteSpace=wrap;html=1;" parent="Gd-mYLwhgfqLwhZGRjHQ-120" vertex="1">
          <mxGeometry y="276" width="440" height="26" as="geometry" />
        </mxCell>
        <mxCell id="Gd-mYLwhgfqLwhZGRjHQ-138" value="+ ActivateToolMenuSlot()" style="text;strokeColor=none;fillColor=none;align=left;verticalAlign=top;spacingLeft=4;spacingRight=4;overflow=hidden;rotatable=0;points=[[0,0.5],[1,0.5]];portConstraint=eastwest;whiteSpace=wrap;html=1;" parent="Gd-mYLwhgfqLwhZGRjHQ-120" vertex="1">
          <mxGeometry y="302" width="440" height="26" as="geometry" />
        </mxCell>
        <mxCell id="Gd-mYLwhgfqLwhZGRjHQ-139" value="+ ActivateResourceMenuSlot()" style="text;strokeColor=none;fillColor=none;align=left;verticalAlign=top;spacingLeft=4;spacingRight=4;overflow=hidden;rotatable=0;points=[[0,0.5],[1,0.5]];portConstraint=eastwest;whiteSpace=wrap;html=1;" parent="Gd-mYLwhgfqLwhZGRjHQ-120" vertex="1">
          <mxGeometry y="328" width="440" height="26" as="geometry" />
        </mxCell>
        <mxCell id="Gd-mYLwhgfqLwhZGRjHQ-140" value="+ Action()" style="text;strokeColor=none;fillColor=none;align=left;verticalAlign=top;spacingLeft=4;spacingRight=4;overflow=hidden;rotatable=0;points=[[0,0.5],[1,0.5]];portConstraint=eastwest;whiteSpace=wrap;html=1;" parent="Gd-mYLwhgfqLwhZGRjHQ-120" vertex="1">
          <mxGeometry y="354" width="440" height="26" as="geometry" />
        </mxCell>
        <mxCell id="Gd-mYLwhgfqLwhZGRjHQ-141" value="+ Update()" style="text;strokeColor=none;fillColor=none;align=left;verticalAlign=top;spacingLeft=4;spacingRight=4;overflow=hidden;rotatable=0;points=[[0,0.5],[1,0.5]];portConstraint=eastwest;whiteSpace=wrap;html=1;" parent="Gd-mYLwhgfqLwhZGRjHQ-120" vertex="1">
          <mxGeometry y="380" width="440" height="26" as="geometry" />
        </mxCell>
        <mxCell id="Gd-mYLwhgfqLwhZGRjHQ-142" value="Extends" style="endArrow=block;endSize=16;endFill=0;html=1;rounded=0;" parent="WIyWlLk6GJQsqaUBKTNV-1" source="Gd-mYLwhgfqLwhZGRjHQ-119" target="Gd-mYLwhgfqLwhZGRjHQ-120" edge="1">
          <mxGeometry width="160" relative="1" as="geometry">
            <mxPoint x="1930" y="980" as="sourcePoint" />
            <mxPoint x="2090" y="980" as="targetPoint" />
          </mxGeometry>
        </mxCell>
        <mxCell id="tNMWOhQOn91rL2KLn048-0" value="&lt;font style=&quot;font-size: 18px;&quot;&gt;ToolSlot&lt;/font&gt;" style="swimlane;fontStyle=1;align=center;verticalAlign=top;childLayout=stackLayout;horizontal=1;startSize=26;horizontalStack=0;resizeParent=1;resizeParentMax=0;resizeLast=0;collapsible=1;marginBottom=0;whiteSpace=wrap;html=1;" parent="WIyWlLk6GJQsqaUBKTNV-1" vertex="1">
          <mxGeometry x="2260" y="790" width="440" height="240" as="geometry" />
        </mxCell>
        <mxCell id="tNMWOhQOn91rL2KLn048-1" value="+ inventory: GameObject" style="text;strokeColor=none;fillColor=none;align=left;verticalAlign=top;spacingLeft=4;spacingRight=4;overflow=hidden;rotatable=0;points=[[0,0.5],[1,0.5]];portConstraint=eastwest;whiteSpace=wrap;html=1;" parent="tNMWOhQOn91rL2KLn048-0" vertex="1">
          <mxGeometry y="26" width="440" height="26" as="geometry" />
        </mxCell>
        <mxCell id="tNMWOhQOn91rL2KLn048-2" value="+ meniuSlot: GameObject" style="text;strokeColor=none;fillColor=none;align=left;verticalAlign=top;spacingLeft=4;spacingRight=4;overflow=hidden;rotatable=0;points=[[0,0.5],[1,0.5]];portConstraint=eastwest;whiteSpace=wrap;html=1;" parent="tNMWOhQOn91rL2KLn048-0" vertex="1">
          <mxGeometry y="52" width="440" height="24" as="geometry" />
        </mxCell>
        <mxCell id="tNMWOhQOn91rL2KLn048-12" value="" style="line;strokeWidth=1;fillColor=none;align=left;verticalAlign=middle;spacingTop=-1;spacingLeft=3;spacingRight=3;rotatable=0;labelPosition=right;points=[];portConstraint=eastwest;strokeColor=inherit;" parent="tNMWOhQOn91rL2KLn048-0" vertex="1">
          <mxGeometry y="76" width="440" height="8" as="geometry" />
        </mxCell>
        <mxCell id="tNMWOhQOn91rL2KLn048-13" value="+ Awake()" style="text;strokeColor=none;fillColor=none;align=left;verticalAlign=top;spacingLeft=4;spacingRight=4;overflow=hidden;rotatable=0;points=[[0,0.5],[1,0.5]];portConstraint=eastwest;whiteSpace=wrap;html=1;" parent="tNMWOhQOn91rL2KLn048-0" vertex="1">
          <mxGeometry y="84" width="440" height="26" as="geometry" />
        </mxCell>
        <mxCell id="tNMWOhQOn91rL2KLn048-19" value="+ Start()" style="text;strokeColor=none;fillColor=none;align=left;verticalAlign=top;spacingLeft=4;spacingRight=4;overflow=hidden;rotatable=0;points=[[0,0.5],[1,0.5]];portConstraint=eastwest;whiteSpace=wrap;html=1;" parent="tNMWOhQOn91rL2KLn048-0" vertex="1">
          <mxGeometry y="110" width="440" height="26" as="geometry" />
        </mxCell>
        <mxCell id="tNMWOhQOn91rL2KLn048-14" value="+ ActivateToolMenuSlot()" style="text;strokeColor=none;fillColor=none;align=left;verticalAlign=top;spacingLeft=4;spacingRight=4;overflow=hidden;rotatable=0;points=[[0,0.5],[1,0.5]];portConstraint=eastwest;whiteSpace=wrap;html=1;" parent="tNMWOhQOn91rL2KLn048-0" vertex="1">
          <mxGeometry y="136" width="440" height="26" as="geometry" />
        </mxCell>
        <mxCell id="tNMWOhQOn91rL2KLn048-15" value="+ ActivateResourceMenuSlot()" style="text;strokeColor=none;fillColor=none;align=left;verticalAlign=top;spacingLeft=4;spacingRight=4;overflow=hidden;rotatable=0;points=[[0,0.5],[1,0.5]];portConstraint=eastwest;whiteSpace=wrap;html=1;" parent="tNMWOhQOn91rL2KLn048-0" vertex="1">
          <mxGeometry y="162" width="440" height="26" as="geometry" />
        </mxCell>
        <mxCell id="tNMWOhQOn91rL2KLn048-16" value="+ Action()" style="text;strokeColor=none;fillColor=none;align=left;verticalAlign=top;spacingLeft=4;spacingRight=4;overflow=hidden;rotatable=0;points=[[0,0.5],[1,0.5]];portConstraint=eastwest;whiteSpace=wrap;html=1;" parent="tNMWOhQOn91rL2KLn048-0" vertex="1">
          <mxGeometry y="188" width="440" height="26" as="geometry" />
        </mxCell>
        <mxCell id="tNMWOhQOn91rL2KLn048-17" value="+ Update()" style="text;strokeColor=none;fillColor=none;align=left;verticalAlign=top;spacingLeft=4;spacingRight=4;overflow=hidden;rotatable=0;points=[[0,0.5],[1,0.5]];portConstraint=eastwest;whiteSpace=wrap;html=1;" parent="tNMWOhQOn91rL2KLn048-0" vertex="1">
          <mxGeometry y="214" width="440" height="26" as="geometry" />
        </mxCell>
        <mxCell id="tNMWOhQOn91rL2KLn048-18" value="Extends" style="endArrow=block;endSize=16;endFill=0;html=1;rounded=0;exitX=0.522;exitY=1.041;exitDx=0;exitDy=0;exitPerimeter=0;entryX=0.5;entryY=0;entryDx=0;entryDy=0;" parent="WIyWlLk6GJQsqaUBKTNV-1" source="Gd-mYLwhgfqLwhZGRjHQ-119" target="tNMWOhQOn91rL2KLn048-0" edge="1">
          <mxGeometry width="160" relative="1" as="geometry">
            <mxPoint x="1826" y="818" as="sourcePoint" />
            <mxPoint x="1790" y="930" as="targetPoint" />
          </mxGeometry>
        </mxCell>
        <mxCell id="tNMWOhQOn91rL2KLn048-20" value="&lt;font style=&quot;font-size: 18px;&quot;&gt;InventoryAbstractClass&lt;/font&gt;" style="swimlane;fontStyle=1;align=center;verticalAlign=top;childLayout=stackLayout;horizontal=1;startSize=26;horizontalStack=0;resizeParent=1;resizeParentMax=0;resizeLast=0;collapsible=1;marginBottom=0;whiteSpace=wrap;html=1;" parent="WIyWlLk6GJQsqaUBKTNV-1" vertex="1">
          <mxGeometry x="3270" y="280" width="700" height="210" as="geometry" />
        </mxCell>
        <mxCell id="tNMWOhQOn91rL2KLn048-21" value="+ allSlots: Integer" style="text;strokeColor=none;fillColor=none;align=left;verticalAlign=top;spacingLeft=4;spacingRight=4;overflow=hidden;rotatable=0;points=[[0,0.5],[1,0.5]];portConstraint=eastwest;whiteSpace=wrap;html=1;" parent="tNMWOhQOn91rL2KLn048-20" vertex="1">
          <mxGeometry y="26" width="700" height="26" as="geometry" />
        </mxCell>
        <mxCell id="tNMWOhQOn91rL2KLn048-22" value="+ slots: SlotAbstractClass[]" style="text;strokeColor=none;fillColor=none;align=left;verticalAlign=top;spacingLeft=4;spacingRight=4;overflow=hidden;rotatable=0;points=[[0,0.5],[1,0.5]];portConstraint=eastwest;whiteSpace=wrap;html=1;" parent="tNMWOhQOn91rL2KLn048-20" vertex="1">
          <mxGeometry y="52" width="700" height="24" as="geometry" />
        </mxCell>
        <mxCell id="tNMWOhQOn91rL2KLn048-49" value="+ fullCounter: Integer" style="text;strokeColor=none;fillColor=none;align=left;verticalAlign=top;spacingLeft=4;spacingRight=4;overflow=hidden;rotatable=0;points=[[0,0.5],[1,0.5]];portConstraint=eastwest;whiteSpace=wrap;html=1;" parent="tNMWOhQOn91rL2KLn048-20" vertex="1">
          <mxGeometry y="76" width="700" height="24" as="geometry" />
        </mxCell>
        <mxCell id="tNMWOhQOn91rL2KLn048-48" value="+ isFull: bool" style="text;strokeColor=none;fillColor=none;align=left;verticalAlign=top;spacingLeft=4;spacingRight=4;overflow=hidden;rotatable=0;points=[[0,0.5],[1,0.5]];portConstraint=eastwest;whiteSpace=wrap;html=1;" parent="tNMWOhQOn91rL2KLn048-20" vertex="1">
          <mxGeometry y="100" width="700" height="24" as="geometry" />
        </mxCell>
        <mxCell id="tNMWOhQOn91rL2KLn048-35" value="" style="line;strokeWidth=1;fillColor=none;align=left;verticalAlign=middle;spacingTop=-1;spacingLeft=3;spacingRight=3;rotatable=0;labelPosition=right;points=[];portConstraint=eastwest;strokeColor=inherit;" parent="tNMWOhQOn91rL2KLn048-20" vertex="1">
          <mxGeometry y="124" width="700" height="8" as="geometry" />
        </mxCell>
        <mxCell id="tNMWOhQOn91rL2KLn048-37" value="+ abstract AddItem(itemObject: GameObject, itemID: Integer, itemType: string, itemDescription: string, itemIcon: Sprite)" style="text;strokeColor=none;fillColor=none;align=left;verticalAlign=top;spacingLeft=4;spacingRight=4;overflow=hidden;rotatable=0;points=[[0,0.5],[1,0.5]];portConstraint=eastwest;whiteSpace=wrap;html=1;" parent="tNMWOhQOn91rL2KLn048-20" vertex="1">
          <mxGeometry y="132" width="700" height="26" as="geometry" />
        </mxCell>
        <mxCell id="tNMWOhQOn91rL2KLn048-61" value="+ PopulateSlot(int x, index: Integer, itemObject: GameObject, itemID: Integer, itemType: string, itemDescription: string, itemIcon: Sprite)" style="text;strokeColor=none;fillColor=none;align=left;verticalAlign=top;spacingLeft=4;spacingRight=4;overflow=hidden;rotatable=0;points=[[0,0.5],[1,0.5]];portConstraint=eastwest;whiteSpace=wrap;html=1;" parent="tNMWOhQOn91rL2KLn048-20" vertex="1">
          <mxGeometry y="158" width="700" height="52" as="geometry" />
        </mxCell>
        <mxCell id="tNMWOhQOn91rL2KLn048-42" value="&lt;font style=&quot;font-size: 18px;&quot;&gt;Inventory&lt;/font&gt;" style="swimlane;fontStyle=1;align=center;verticalAlign=top;childLayout=stackLayout;horizontal=1;startSize=26;horizontalStack=0;resizeParent=1;resizeParentMax=0;resizeLast=0;collapsible=1;marginBottom=0;whiteSpace=wrap;html=1;" parent="WIyWlLk6GJQsqaUBKTNV-1" vertex="1">
          <mxGeometry x="3080" y="520" width="600" height="286" as="geometry" />
        </mxCell>
        <mxCell id="tNMWOhQOn91rL2KLn048-43" value="+ inventoryEnabled: bool" style="text;strokeColor=none;fillColor=none;align=left;verticalAlign=top;spacingLeft=4;spacingRight=4;overflow=hidden;rotatable=0;points=[[0,0.5],[1,0.5]];portConstraint=eastwest;whiteSpace=wrap;html=1;" parent="tNMWOhQOn91rL2KLn048-42" vertex="1">
          <mxGeometry y="26" width="600" height="26" as="geometry" />
        </mxCell>
        <mxCell id="tNMWOhQOn91rL2KLn048-44" value="+ slotHolder: GameObject" style="text;strokeColor=none;fillColor=none;align=left;verticalAlign=top;spacingLeft=4;spacingRight=4;overflow=hidden;rotatable=0;points=[[0,0.5],[1,0.5]];portConstraint=eastwest;whiteSpace=wrap;html=1;" parent="tNMWOhQOn91rL2KLn048-42" vertex="1">
          <mxGeometry y="52" width="600" height="24" as="geometry" />
        </mxCell>
        <mxCell id="tNMWOhQOn91rL2KLn048-45" value="+&amp;nbsp; hasKey: bool" style="text;strokeColor=none;fillColor=none;align=left;verticalAlign=top;spacingLeft=4;spacingRight=4;overflow=hidden;rotatable=0;points=[[0,0.5],[1,0.5]];portConstraint=eastwest;whiteSpace=wrap;html=1;" parent="tNMWOhQOn91rL2KLn048-42" vertex="1">
          <mxGeometry y="76" width="600" height="24" as="geometry" />
        </mxCell>
        <mxCell id="tNMWOhQOn91rL2KLn048-46" value="+ inventory: GameObject" style="text;strokeColor=none;fillColor=none;align=left;verticalAlign=top;spacingLeft=4;spacingRight=4;overflow=hidden;rotatable=0;points=[[0,0.5],[1,0.5]];portConstraint=eastwest;whiteSpace=wrap;html=1;" parent="tNMWOhQOn91rL2KLn048-42" vertex="1">
          <mxGeometry y="100" width="600" height="24" as="geometry" />
        </mxCell>
        <mxCell id="tNMWOhQOn91rL2KLn048-47" value="+ armorrPanel: GameObject" style="text;strokeColor=none;fillColor=none;align=left;verticalAlign=top;spacingLeft=4;spacingRight=4;overflow=hidden;rotatable=0;points=[[0,0.5],[1,0.5]];portConstraint=eastwest;whiteSpace=wrap;html=1;" parent="tNMWOhQOn91rL2KLn048-42" vertex="1">
          <mxGeometry y="124" width="600" height="24" as="geometry" />
        </mxCell>
        <mxCell id="tNMWOhQOn91rL2KLn048-57" value="" style="line;strokeWidth=1;fillColor=none;align=left;verticalAlign=middle;spacingTop=-1;spacingLeft=3;spacingRight=3;rotatable=0;labelPosition=right;points=[];portConstraint=eastwest;strokeColor=inherit;" parent="tNMWOhQOn91rL2KLn048-42" vertex="1">
          <mxGeometry y="148" width="600" height="8" as="geometry" />
        </mxCell>
        <mxCell id="tNMWOhQOn91rL2KLn048-58" value="+ Start()" style="text;strokeColor=none;fillColor=none;align=left;verticalAlign=top;spacingLeft=4;spacingRight=4;overflow=hidden;rotatable=0;points=[[0,0.5],[1,0.5]];portConstraint=eastwest;whiteSpace=wrap;html=1;" parent="tNMWOhQOn91rL2KLn048-42" vertex="1">
          <mxGeometry y="156" width="600" height="26" as="geometry" />
        </mxCell>
        <mxCell id="tNMWOhQOn91rL2KLn048-63" value="+ Update()" style="text;strokeColor=none;fillColor=none;align=left;verticalAlign=top;spacingLeft=4;spacingRight=4;overflow=hidden;rotatable=0;points=[[0,0.5],[1,0.5]];portConstraint=eastwest;whiteSpace=wrap;html=1;" parent="tNMWOhQOn91rL2KLn048-42" vertex="1">
          <mxGeometry y="182" width="600" height="26" as="geometry" />
        </mxCell>
        <mxCell id="tNMWOhQOn91rL2KLn048-59" value="+ EnableDisableInventory()" style="text;strokeColor=none;fillColor=none;align=left;verticalAlign=top;spacingLeft=4;spacingRight=4;overflow=hidden;rotatable=0;points=[[0,0.5],[1,0.5]];portConstraint=eastwest;whiteSpace=wrap;html=1;" parent="tNMWOhQOn91rL2KLn048-42" vertex="1">
          <mxGeometry y="208" width="600" height="26" as="geometry" />
        </mxCell>
        <mxCell id="tNMWOhQOn91rL2KLn048-60" value="+ OnTriggerEnter(other: Collider)" style="text;strokeColor=none;fillColor=none;align=left;verticalAlign=top;spacingLeft=4;spacingRight=4;overflow=hidden;rotatable=0;points=[[0,0.5],[1,0.5]];portConstraint=eastwest;whiteSpace=wrap;html=1;" parent="tNMWOhQOn91rL2KLn048-42" vertex="1">
          <mxGeometry y="234" width="600" height="26" as="geometry" />
        </mxCell>
        <mxCell id="tNMWOhQOn91rL2KLn048-64" value="+ AddItem(itemObject: GameObject, itemID: Integer, itemType: string, itemDescription: string, itemIcon: Sprite)" style="text;strokeColor=none;fillColor=none;align=left;verticalAlign=top;spacingLeft=4;spacingRight=4;overflow=hidden;rotatable=0;points=[[0,0.5],[1,0.5]];portConstraint=eastwest;whiteSpace=wrap;html=1;" parent="tNMWOhQOn91rL2KLn048-42" vertex="1">
          <mxGeometry y="260" width="600" height="26" as="geometry" />
        </mxCell>
        <mxCell id="tNMWOhQOn91rL2KLn048-65" value="Extends" style="endArrow=block;endSize=16;endFill=0;html=1;rounded=0;entryX=0.551;entryY=-0.007;entryDx=0;entryDy=0;entryPerimeter=0;" parent="WIyWlLk6GJQsqaUBKTNV-1" source="tNMWOhQOn91rL2KLn048-20" target="tNMWOhQOn91rL2KLn048-42" edge="1">
          <mxGeometry width="160" relative="1" as="geometry">
            <mxPoint x="1840" y="819" as="sourcePoint" />
            <mxPoint x="2340" y="920" as="targetPoint" />
          </mxGeometry>
        </mxCell>
        <mxCell id="tNMWOhQOn91rL2KLn048-66" value="&lt;font style=&quot;font-size: 18px;&quot;&gt;ToolBar&lt;/font&gt;" style="swimlane;fontStyle=1;align=center;verticalAlign=top;childLayout=stackLayout;horizontal=1;startSize=26;horizontalStack=0;resizeParent=1;resizeParentMax=0;resizeLast=0;collapsible=1;marginBottom=0;whiteSpace=wrap;html=1;" parent="WIyWlLk6GJQsqaUBKTNV-1" vertex="1">
          <mxGeometry x="3690" y="520" width="600" height="358" as="geometry" />
        </mxCell>
        <mxCell id="tNMWOhQOn91rL2KLn048-67" value="+ toolManager: GameObject" style="text;strokeColor=none;fillColor=none;align=left;verticalAlign=top;spacingLeft=4;spacingRight=4;overflow=hidden;rotatable=0;points=[[0,0.5],[1,0.5]];portConstraint=eastwest;whiteSpace=wrap;html=1;" parent="tNMWOhQOn91rL2KLn048-66" vertex="1">
          <mxGeometry y="26" width="600" height="26" as="geometry" />
        </mxCell>
        <mxCell id="tNMWOhQOn91rL2KLn048-70" value="+ toolbar: GameObject" style="text;strokeColor=none;fillColor=none;align=left;verticalAlign=top;spacingLeft=4;spacingRight=4;overflow=hidden;rotatable=0;points=[[0,0.5],[1,0.5]];portConstraint=eastwest;whiteSpace=wrap;html=1;" parent="tNMWOhQOn91rL2KLn048-66" vertex="1">
          <mxGeometry y="52" width="600" height="24" as="geometry" />
        </mxCell>
        <mxCell id="tNMWOhQOn91rL2KLn048-82" value="+ selectedToolSlot: Integer" style="text;strokeColor=none;fillColor=none;align=left;verticalAlign=top;spacingLeft=4;spacingRight=4;overflow=hidden;rotatable=0;points=[[0,0.5],[1,0.5]];portConstraint=eastwest;whiteSpace=wrap;html=1;" parent="tNMWOhQOn91rL2KLn048-66" vertex="1">
          <mxGeometry y="76" width="600" height="24" as="geometry" />
        </mxCell>
        <mxCell id="tNMWOhQOn91rL2KLn048-68" value="+ allToolsInWeaponManager: Integer" style="text;strokeColor=none;fillColor=none;align=left;verticalAlign=top;spacingLeft=4;spacingRight=4;overflow=hidden;rotatable=0;points=[[0,0.5],[1,0.5]];portConstraint=eastwest;whiteSpace=wrap;html=1;" parent="tNMWOhQOn91rL2KLn048-66" vertex="1">
          <mxGeometry y="100" width="600" height="24" as="geometry" />
        </mxCell>
        <mxCell id="tNMWOhQOn91rL2KLn048-69" value="+&amp;nbsp; bowToBeEnabledDisabled: GameObject" style="text;strokeColor=none;fillColor=none;align=left;verticalAlign=top;spacingLeft=4;spacingRight=4;overflow=hidden;rotatable=0;points=[[0,0.5],[1,0.5]];portConstraint=eastwest;whiteSpace=wrap;html=1;" parent="tNMWOhQOn91rL2KLn048-66" vertex="1">
          <mxGeometry y="124" width="600" height="24" as="geometry" />
        </mxCell>
        <mxCell id="tNMWOhQOn91rL2KLn048-81" value="+ player: GameObject" style="text;strokeColor=none;fillColor=none;align=left;verticalAlign=top;spacingLeft=4;spacingRight=4;overflow=hidden;rotatable=0;points=[[0,0.5],[1,0.5]];portConstraint=eastwest;whiteSpace=wrap;html=1;" parent="tNMWOhQOn91rL2KLn048-66" vertex="1">
          <mxGeometry y="148" width="600" height="24" as="geometry" />
        </mxCell>
        <mxCell id="tNMWOhQOn91rL2KLn048-71" value="+ dealDamagePoint: GameObject" style="text;strokeColor=none;fillColor=none;align=left;verticalAlign=top;spacingLeft=4;spacingRight=4;overflow=hidden;rotatable=0;points=[[0,0.5],[1,0.5]];portConstraint=eastwest;whiteSpace=wrap;html=1;" parent="tNMWOhQOn91rL2KLn048-66" vertex="1">
          <mxGeometry y="172" width="600" height="24" as="geometry" />
        </mxCell>
        <mxCell id="tNMWOhQOn91rL2KLn048-73" value="+ fistAttackPoint: GameObject" style="text;strokeColor=none;fillColor=none;align=left;verticalAlign=top;spacingLeft=4;spacingRight=4;overflow=hidden;rotatable=0;points=[[0,0.5],[1,0.5]];portConstraint=eastwest;whiteSpace=wrap;html=1;" parent="tNMWOhQOn91rL2KLn048-66" vertex="1">
          <mxGeometry y="196" width="600" height="24" as="geometry" />
        </mxCell>
        <mxCell id="tNMWOhQOn91rL2KLn048-74" value="" style="line;strokeWidth=1;fillColor=none;align=left;verticalAlign=middle;spacingTop=-1;spacingLeft=3;spacingRight=3;rotatable=0;labelPosition=right;points=[];portConstraint=eastwest;strokeColor=inherit;" parent="tNMWOhQOn91rL2KLn048-66" vertex="1">
          <mxGeometry y="220" width="600" height="8" as="geometry" />
        </mxCell>
        <mxCell id="tNMWOhQOn91rL2KLn048-84" value="+ Awake()" style="text;strokeColor=none;fillColor=none;align=left;verticalAlign=top;spacingLeft=4;spacingRight=4;overflow=hidden;rotatable=0;points=[[0,0.5],[1,0.5]];portConstraint=eastwest;whiteSpace=wrap;html=1;" parent="tNMWOhQOn91rL2KLn048-66" vertex="1">
          <mxGeometry y="228" width="600" height="26" as="geometry" />
        </mxCell>
        <mxCell id="tNMWOhQOn91rL2KLn048-75" value="+ Start()" style="text;strokeColor=none;fillColor=none;align=left;verticalAlign=top;spacingLeft=4;spacingRight=4;overflow=hidden;rotatable=0;points=[[0,0.5],[1,0.5]];portConstraint=eastwest;whiteSpace=wrap;html=1;" parent="tNMWOhQOn91rL2KLn048-66" vertex="1">
          <mxGeometry y="254" width="600" height="26" as="geometry" />
        </mxCell>
        <mxCell id="tNMWOhQOn91rL2KLn048-76" value="+ Update()" style="text;strokeColor=none;fillColor=none;align=left;verticalAlign=top;spacingLeft=4;spacingRight=4;overflow=hidden;rotatable=0;points=[[0,0.5],[1,0.5]];portConstraint=eastwest;whiteSpace=wrap;html=1;" parent="tNMWOhQOn91rL2KLn048-66" vertex="1">
          <mxGeometry y="280" width="600" height="26" as="geometry" />
        </mxCell>
        <mxCell id="tNMWOhQOn91rL2KLn048-77" value="+ SelectToolSlot(x: Integer)" style="text;strokeColor=none;fillColor=none;align=left;verticalAlign=top;spacingLeft=4;spacingRight=4;overflow=hidden;rotatable=0;points=[[0,0.5],[1,0.5]];portConstraint=eastwest;whiteSpace=wrap;html=1;" parent="tNMWOhQOn91rL2KLn048-66" vertex="1">
          <mxGeometry y="306" width="600" height="26" as="geometry" />
        </mxCell>
        <mxCell id="tNMWOhQOn91rL2KLn048-79" value="+ AddItem(itemObject: GameObject, itemID: Integer, itemType: string, itemDescription: string, itemIcon: Sprite)" style="text;strokeColor=none;fillColor=none;align=left;verticalAlign=top;spacingLeft=4;spacingRight=4;overflow=hidden;rotatable=0;points=[[0,0.5],[1,0.5]];portConstraint=eastwest;whiteSpace=wrap;html=1;" parent="tNMWOhQOn91rL2KLn048-66" vertex="1">
          <mxGeometry y="332" width="600" height="26" as="geometry" />
        </mxCell>
        <mxCell id="tNMWOhQOn91rL2KLn048-85" value="Extends" style="endArrow=block;endSize=16;endFill=0;html=1;rounded=0;entryX=0.277;entryY=0.001;entryDx=0;entryDy=0;entryPerimeter=0;" parent="WIyWlLk6GJQsqaUBKTNV-1" source="tNMWOhQOn91rL2KLn048-20" target="tNMWOhQOn91rL2KLn048-66" edge="1">
          <mxGeometry width="160" relative="1" as="geometry">
            <mxPoint x="3520" y="400" as="sourcePoint" />
            <mxPoint x="3245" y="537" as="targetPoint" />
          </mxGeometry>
        </mxCell>
        <mxCell id="tNMWOhQOn91rL2KLn048-86" value="1" style="endArrow=open;html=1;endSize=12;startArrow=diamondThin;startSize=14;startFill=0;edgeStyle=orthogonalEdgeStyle;align=left;verticalAlign=bottom;rounded=0;exitX=0;exitY=0.5;exitDx=0;exitDy=0;" parent="WIyWlLk6GJQsqaUBKTNV-1" source="tNMWOhQOn91rL2KLn048-22" target="Gd-mYLwhgfqLwhZGRjHQ-97" edge="1">
          <mxGeometry x="-1" y="3" relative="1" as="geometry">
            <mxPoint x="2640" y="174" as="sourcePoint" />
            <mxPoint x="2020" y="280" as="targetPoint" />
          </mxGeometry>
        </mxCell>
        <mxCell id="tNMWOhQOn91rL2KLn048-87" value="1...allSlots" style="text;html=1;align=center;verticalAlign=middle;resizable=0;points=[];autosize=1;strokeColor=none;fillColor=none;" parent="WIyWlLk6GJQsqaUBKTNV-1" vertex="1">
          <mxGeometry x="2045" y="510" width="80" height="30" as="geometry" />
        </mxCell>
        <mxCell id="qJG7EqIrgYHRXjXj1I9G-0" value="&lt;font style=&quot;font-size: 18px;&quot;&gt;ItemAbstractClass&lt;/font&gt;" style="swimlane;fontStyle=1;align=center;verticalAlign=top;childLayout=stackLayout;horizontal=1;startSize=26;horizontalStack=0;resizeParent=1;resizeParentMax=0;resizeLast=0;collapsible=1;marginBottom=0;whiteSpace=wrap;html=1;" parent="WIyWlLk6GJQsqaUBKTNV-1" vertex="1">
          <mxGeometry x="4860" y="280" width="700" height="436" as="geometry" />
        </mxCell>
        <mxCell id="qJG7EqIrgYHRXjXj1I9G-1" value="+ id: Integer" style="text;strokeColor=none;fillColor=none;align=left;verticalAlign=top;spacingLeft=4;spacingRight=4;overflow=hidden;rotatable=0;points=[[0,0.5],[1,0.5]];portConstraint=eastwest;whiteSpace=wrap;html=1;" parent="qJG7EqIrgYHRXjXj1I9G-0" vertex="1">
          <mxGeometry y="26" width="700" height="26" as="geometry" />
        </mxCell>
        <mxCell id="qJG7EqIrgYHRXjXj1I9G-2" value="+ type: string" style="text;strokeColor=none;fillColor=none;align=left;verticalAlign=top;spacingLeft=4;spacingRight=4;overflow=hidden;rotatable=0;points=[[0,0.5],[1,0.5]];portConstraint=eastwest;whiteSpace=wrap;html=1;" parent="qJG7EqIrgYHRXjXj1I9G-0" vertex="1">
          <mxGeometry y="52" width="700" height="24" as="geometry" />
        </mxCell>
        <mxCell id="qJG7EqIrgYHRXjXj1I9G-5" value="+ description: string" style="text;strokeColor=none;fillColor=none;align=left;verticalAlign=top;spacingLeft=4;spacingRight=4;overflow=hidden;rotatable=0;points=[[0,0.5],[1,0.5]];portConstraint=eastwest;whiteSpace=wrap;html=1;" parent="qJG7EqIrgYHRXjXj1I9G-0" vertex="1">
          <mxGeometry y="76" width="700" height="24" as="geometry" />
        </mxCell>
        <mxCell id="qJG7EqIrgYHRXjXj1I9G-6" value="+ icon: Sprite" style="text;strokeColor=none;fillColor=none;align=left;verticalAlign=top;spacingLeft=4;spacingRight=4;overflow=hidden;rotatable=0;points=[[0,0.5],[1,0.5]];portConstraint=eastwest;whiteSpace=wrap;html=1;" parent="qJG7EqIrgYHRXjXj1I9G-0" vertex="1">
          <mxGeometry y="100" width="700" height="26" as="geometry" />
        </mxCell>
        <mxCell id="qJG7EqIrgYHRXjXj1I9G-8" value="+ pickedUp: bool" style="text;strokeColor=none;fillColor=none;align=left;verticalAlign=top;spacingLeft=4;spacingRight=4;overflow=hidden;rotatable=0;points=[[0,0.5],[1,0.5]];portConstraint=eastwest;whiteSpace=wrap;html=1;" parent="qJG7EqIrgYHRXjXj1I9G-0" vertex="1">
          <mxGeometry y="126" width="700" height="24" as="geometry" />
        </mxCell>
        <mxCell id="qJG7EqIrgYHRXjXj1I9G-7" value="+ player: GameObject" style="text;strokeColor=none;fillColor=none;align=left;verticalAlign=top;spacingLeft=4;spacingRight=4;overflow=hidden;rotatable=0;points=[[0,0.5],[1,0.5]];portConstraint=eastwest;whiteSpace=wrap;html=1;" parent="qJG7EqIrgYHRXjXj1I9G-0" vertex="1">
          <mxGeometry y="150" width="700" height="24" as="geometry" />
        </mxCell>
        <mxCell id="qJG7EqIrgYHRXjXj1I9G-9" value="+ thePlaceWhereAllToolsAreStoredBeforePicking: GameObject" style="text;strokeColor=none;fillColor=none;align=left;verticalAlign=top;spacingLeft=4;spacingRight=4;overflow=hidden;rotatable=0;points=[[0,0.5],[1,0.5]];portConstraint=eastwest;whiteSpace=wrap;html=1;" parent="qJG7EqIrgYHRXjXj1I9G-0" vertex="1">
          <mxGeometry y="174" width="700" height="24" as="geometry" />
        </mxCell>
        <mxCell id="qJG7EqIrgYHRXjXj1I9G-10" value="+ furnace: GameObject" style="text;strokeColor=none;fillColor=none;align=left;verticalAlign=top;spacingLeft=4;spacingRight=4;overflow=hidden;rotatable=0;points=[[0,0.5],[1,0.5]];portConstraint=eastwest;whiteSpace=wrap;html=1;" parent="qJG7EqIrgYHRXjXj1I9G-0" vertex="1">
          <mxGeometry y="198" width="700" height="24" as="geometry" />
        </mxCell>
        <mxCell id="qJG7EqIrgYHRXjXj1I9G-11" value="+ animator: Animator" style="text;strokeColor=none;fillColor=none;align=left;verticalAlign=top;spacingLeft=4;spacingRight=4;overflow=hidden;rotatable=0;points=[[0,0.5],[1,0.5]];portConstraint=eastwest;whiteSpace=wrap;html=1;" parent="qJG7EqIrgYHRXjXj1I9G-0" vertex="1">
          <mxGeometry y="222" width="700" height="24" as="geometry" />
        </mxCell>
        <mxCell id="qJG7EqIrgYHRXjXj1I9G-3" value="" style="line;strokeWidth=1;fillColor=none;align=left;verticalAlign=middle;spacingTop=-1;spacingLeft=3;spacingRight=3;rotatable=0;labelPosition=right;points=[];portConstraint=eastwest;strokeColor=inherit;" parent="qJG7EqIrgYHRXjXj1I9G-0" vertex="1">
          <mxGeometry y="246" width="700" height="8" as="geometry" />
        </mxCell>
        <mxCell id="qJG7EqIrgYHRXjXj1I9G-4" value="+ Awake()" style="text;strokeColor=none;fillColor=none;align=left;verticalAlign=top;spacingLeft=4;spacingRight=4;overflow=hidden;rotatable=0;points=[[0,0.5],[1,0.5]];portConstraint=eastwest;whiteSpace=wrap;html=1;" parent="qJG7EqIrgYHRXjXj1I9G-0" vertex="1">
          <mxGeometry y="254" width="700" height="26" as="geometry" />
        </mxCell>
        <mxCell id="qJG7EqIrgYHRXjXj1I9G-12" value="+ virtual Start()" style="text;strokeColor=none;fillColor=none;align=left;verticalAlign=top;spacingLeft=4;spacingRight=4;overflow=hidden;rotatable=0;points=[[0,0.5],[1,0.5]];portConstraint=eastwest;whiteSpace=wrap;html=1;" parent="qJG7EqIrgYHRXjXj1I9G-0" vertex="1">
          <mxGeometry y="280" width="700" height="26" as="geometry" />
        </mxCell>
        <mxCell id="qJG7EqIrgYHRXjXj1I9G-13" value="+ DropItemFromInventory(slot: InventorySlot)" style="text;strokeColor=none;fillColor=none;align=left;verticalAlign=top;spacingLeft=4;spacingRight=4;overflow=hidden;rotatable=0;points=[[0,0.5],[1,0.5]];portConstraint=eastwest;whiteSpace=wrap;html=1;" parent="qJG7EqIrgYHRXjXj1I9G-0" vertex="1">
          <mxGeometry y="306" width="700" height="26" as="geometry" />
        </mxCell>
        <mxCell id="qJG7EqIrgYHRXjXj1I9G-14" value="+ PutItemIntoFurnace(slot: InventorySlot)" style="text;strokeColor=none;fillColor=none;align=left;verticalAlign=top;spacingLeft=4;spacingRight=4;overflow=hidden;rotatable=0;points=[[0,0.5],[1,0.5]];portConstraint=eastwest;whiteSpace=wrap;html=1;" parent="qJG7EqIrgYHRXjXj1I9G-0" vertex="1">
          <mxGeometry y="332" width="700" height="26" as="geometry" />
        </mxCell>
        <mxCell id="qJG7EqIrgYHRXjXj1I9G-15" value="+ MoveItemFromOneInventorySlotToAnother(source: InventorySlot, destination: InventorySlot)" style="text;strokeColor=none;fillColor=none;align=left;verticalAlign=top;spacingLeft=4;spacingRight=4;overflow=hidden;rotatable=0;points=[[0,0.5],[1,0.5]];portConstraint=eastwest;whiteSpace=wrap;html=1;" parent="qJG7EqIrgYHRXjXj1I9G-0" vertex="1">
          <mxGeometry y="358" width="700" height="26" as="geometry" />
        </mxCell>
        <mxCell id="qJG7EqIrgYHRXjXj1I9G-16" value="+ FurnaceCooking(source: InventorySlot, destination: InventorySlot, instanta: GameObject)" style="text;strokeColor=none;fillColor=none;align=left;verticalAlign=top;spacingLeft=4;spacingRight=4;overflow=hidden;rotatable=0;points=[[0,0.5],[1,0.5]];portConstraint=eastwest;whiteSpace=wrap;html=1;" parent="qJG7EqIrgYHRXjXj1I9G-0" vertex="1">
          <mxGeometry y="384" width="700" height="26" as="geometry" />
        </mxCell>
        <mxCell id="qJG7EqIrgYHRXjXj1I9G-17" value="+ UseItemToCraft(slot: InventorySlot)" style="text;strokeColor=none;fillColor=none;align=left;verticalAlign=top;spacingLeft=4;spacingRight=4;overflow=hidden;rotatable=0;points=[[0,0.5],[1,0.5]];portConstraint=eastwest;whiteSpace=wrap;html=1;" parent="qJG7EqIrgYHRXjXj1I9G-0" vertex="1">
          <mxGeometry y="410" width="700" height="26" as="geometry" />
        </mxCell>
        <mxCell id="qJG7EqIrgYHRXjXj1I9G-36" value="&lt;font style=&quot;font-size: 18px;&quot;&gt;Ammo&lt;/font&gt;" style="swimlane;fontStyle=1;align=center;verticalAlign=top;childLayout=stackLayout;horizontal=1;startSize=26;horizontalStack=0;resizeParent=1;resizeParentMax=0;resizeLast=0;collapsible=1;marginBottom=0;whiteSpace=wrap;html=1;" parent="WIyWlLk6GJQsqaUBKTNV-1" vertex="1">
          <mxGeometry x="5235" y="774" width="140" height="60" as="geometry" />
        </mxCell>
        <mxCell id="qJG7EqIrgYHRXjXj1I9G-37" value="+ ammo: GameObject" style="text;strokeColor=none;fillColor=none;align=left;verticalAlign=top;spacingLeft=4;spacingRight=4;overflow=hidden;rotatable=0;points=[[0,0.5],[1,0.5]];portConstraint=eastwest;whiteSpace=wrap;html=1;" parent="qJG7EqIrgYHRXjXj1I9G-36" vertex="1">
          <mxGeometry y="26" width="140" height="26" as="geometry" />
        </mxCell>
        <mxCell id="qJG7EqIrgYHRXjXj1I9G-39" value="" style="line;strokeWidth=1;fillColor=none;align=left;verticalAlign=middle;spacingTop=-1;spacingLeft=3;spacingRight=3;rotatable=0;labelPosition=right;points=[];portConstraint=eastwest;strokeColor=inherit;" parent="qJG7EqIrgYHRXjXj1I9G-36" vertex="1">
          <mxGeometry y="52" width="140" height="8" as="geometry" />
        </mxCell>
        <mxCell id="qJG7EqIrgYHRXjXj1I9G-41" value="Extends" style="endArrow=block;endSize=16;endFill=0;html=1;rounded=0;entryX=0.344;entryY=-0.064;entryDx=0;entryDy=0;entryPerimeter=0;" parent="WIyWlLk6GJQsqaUBKTNV-1" source="qJG7EqIrgYHRXjXj1I9G-0" target="qJG7EqIrgYHRXjXj1I9G-36" edge="1">
          <mxGeometry width="160" relative="1" as="geometry">
            <mxPoint x="4780" y="690" as="sourcePoint" />
            <mxPoint x="4977" y="840" as="targetPoint" />
          </mxGeometry>
        </mxCell>
        <mxCell id="qJG7EqIrgYHRXjXj1I9G-42" value="&lt;font style=&quot;font-size: 18px;&quot;&gt;ArmorPiece&lt;/font&gt;" style="swimlane;fontStyle=1;align=center;verticalAlign=top;childLayout=stackLayout;horizontal=1;startSize=26;horizontalStack=0;resizeParent=1;resizeParentMax=0;resizeLast=0;collapsible=1;marginBottom=0;whiteSpace=wrap;html=1;" parent="WIyWlLk6GJQsqaUBKTNV-1" vertex="1">
          <mxGeometry x="5400" y="861" width="167" height="60" as="geometry" />
        </mxCell>
        <mxCell id="qJG7EqIrgYHRXjXj1I9G-43" value="+ armorPiece: GameObject" style="text;strokeColor=none;fillColor=none;align=left;verticalAlign=top;spacingLeft=4;spacingRight=4;overflow=hidden;rotatable=0;points=[[0,0.5],[1,0.5]];portConstraint=eastwest;whiteSpace=wrap;html=1;" parent="qJG7EqIrgYHRXjXj1I9G-42" vertex="1">
          <mxGeometry y="26" width="167" height="26" as="geometry" />
        </mxCell>
        <mxCell id="qJG7EqIrgYHRXjXj1I9G-44" value="" style="line;strokeWidth=1;fillColor=none;align=left;verticalAlign=middle;spacingTop=-1;spacingLeft=3;spacingRight=3;rotatable=0;labelPosition=right;points=[];portConstraint=eastwest;strokeColor=inherit;" parent="qJG7EqIrgYHRXjXj1I9G-42" vertex="1">
          <mxGeometry y="52" width="167" height="8" as="geometry" />
        </mxCell>
        <mxCell id="qJG7EqIrgYHRXjXj1I9G-45" value="Extends" style="endArrow=block;endSize=16;endFill=0;html=1;rounded=0;entryX=0.227;entryY=0;entryDx=0;entryDy=0;entryPerimeter=0;" parent="WIyWlLk6GJQsqaUBKTNV-1" source="qJG7EqIrgYHRXjXj1I9G-0" target="qJG7EqIrgYHRXjXj1I9G-42" edge="1">
          <mxGeometry width="160" relative="1" as="geometry">
            <mxPoint x="5653" y="716" as="sourcePoint" />
            <mxPoint x="5490" y="866" as="targetPoint" />
          </mxGeometry>
        </mxCell>
        <mxCell id="qJG7EqIrgYHRXjXj1I9G-46" value="&lt;font style=&quot;font-size: 18px;&quot;&gt;Consumable&lt;/font&gt;" style="swimlane;fontStyle=1;align=center;verticalAlign=top;childLayout=stackLayout;horizontal=1;startSize=26;horizontalStack=0;resizeParent=1;resizeParentMax=0;resizeLast=0;collapsible=1;marginBottom=0;whiteSpace=wrap;html=1;" parent="WIyWlLk6GJQsqaUBKTNV-1" vertex="1">
          <mxGeometry x="5530" y="774" width="210" height="34" as="geometry" />
        </mxCell>
        <mxCell id="qJG7EqIrgYHRXjXj1I9G-48" value="" style="line;strokeWidth=1;fillColor=none;align=left;verticalAlign=middle;spacingTop=-1;spacingLeft=3;spacingRight=3;rotatable=0;labelPosition=right;points=[];portConstraint=eastwest;strokeColor=inherit;" parent="qJG7EqIrgYHRXjXj1I9G-46" vertex="1">
          <mxGeometry y="26" width="210" height="8" as="geometry" />
        </mxCell>
        <mxCell id="qJG7EqIrgYHRXjXj1I9G-49" value="Extends" style="endArrow=block;endSize=16;endFill=0;html=1;rounded=0;entryX=0.232;entryY=0.032;entryDx=0;entryDy=0;entryPerimeter=0;" parent="WIyWlLk6GJQsqaUBKTNV-1" source="qJG7EqIrgYHRXjXj1I9G-0" target="qJG7EqIrgYHRXjXj1I9G-46" edge="1">
          <mxGeometry width="160" relative="1" as="geometry">
            <mxPoint x="5398" y="726" as="sourcePoint" />
            <mxPoint x="5529" y="886" as="targetPoint" />
          </mxGeometry>
        </mxCell>
        <mxCell id="qJG7EqIrgYHRXjXj1I9G-51" value="&lt;font style=&quot;font-size: 18px;&quot;&gt;Tool&lt;/font&gt;" style="swimlane;fontStyle=1;align=center;verticalAlign=top;childLayout=stackLayout;horizontal=1;startSize=26;horizontalStack=0;resizeParent=1;resizeParentMax=0;resizeLast=0;collapsible=1;marginBottom=0;whiteSpace=wrap;html=1;" parent="WIyWlLk6GJQsqaUBKTNV-1" vertex="1">
          <mxGeometry x="4810" y="774" width="400" height="234" as="geometry" />
        </mxCell>
        <mxCell id="qJG7EqIrgYHRXjXj1I9G-52" value="+ thisWeapon: GameObject" style="text;strokeColor=none;fillColor=none;align=left;verticalAlign=top;spacingLeft=4;spacingRight=4;overflow=hidden;rotatable=0;points=[[0,0.5],[1,0.5]];portConstraint=eastwest;whiteSpace=wrap;html=1;" parent="qJG7EqIrgYHRXjXj1I9G-51" vertex="1">
          <mxGeometry y="26" width="400" height="26" as="geometry" />
        </mxCell>
        <mxCell id="qJG7EqIrgYHRXjXj1I9G-53" value="+ playersTool: bool" style="text;strokeColor=none;fillColor=none;align=left;verticalAlign=top;spacingLeft=4;spacingRight=4;overflow=hidden;rotatable=0;points=[[0,0.5],[1,0.5]];portConstraint=eastwest;whiteSpace=wrap;html=1;" parent="qJG7EqIrgYHRXjXj1I9G-51" vertex="1">
          <mxGeometry y="52" width="400" height="24" as="geometry" />
        </mxCell>
        <mxCell id="qJG7EqIrgYHRXjXj1I9G-54" value="+ toolManager: GameObject" style="text;strokeColor=none;fillColor=none;align=left;verticalAlign=top;spacingLeft=4;spacingRight=4;overflow=hidden;rotatable=0;points=[[0,0.5],[1,0.5]];portConstraint=eastwest;whiteSpace=wrap;html=1;" parent="qJG7EqIrgYHRXjXj1I9G-51" vertex="1">
          <mxGeometry y="76" width="400" height="24" as="geometry" />
        </mxCell>
        <mxCell id="qJG7EqIrgYHRXjXj1I9G-55" value="+ weapon: GameObject" style="text;strokeColor=none;fillColor=none;align=left;verticalAlign=top;spacingLeft=4;spacingRight=4;overflow=hidden;rotatable=0;points=[[0,0.5],[1,0.5]];portConstraint=eastwest;whiteSpace=wrap;html=1;" parent="qJG7EqIrgYHRXjXj1I9G-51" vertex="1">
          <mxGeometry y="100" width="400" height="24" as="geometry" />
        </mxCell>
        <mxCell id="qJG7EqIrgYHRXjXj1I9G-56" value="+&amp;nbsp; damageAmount: float" style="text;strokeColor=none;fillColor=none;align=left;verticalAlign=top;spacingLeft=4;spacingRight=4;overflow=hidden;rotatable=0;points=[[0,0.5],[1,0.5]];portConstraint=eastwest;whiteSpace=wrap;html=1;" parent="qJG7EqIrgYHRXjXj1I9G-51" vertex="1">
          <mxGeometry y="124" width="400" height="24" as="geometry" />
        </mxCell>
        <mxCell id="qJG7EqIrgYHRXjXj1I9G-62" value="" style="line;strokeWidth=1;fillColor=none;align=left;verticalAlign=middle;spacingTop=-1;spacingLeft=3;spacingRight=3;rotatable=0;labelPosition=right;points=[];portConstraint=eastwest;strokeColor=inherit;" parent="qJG7EqIrgYHRXjXj1I9G-51" vertex="1">
          <mxGeometry y="148" width="400" height="8" as="geometry" />
        </mxCell>
        <mxCell id="qJG7EqIrgYHRXjXj1I9G-64" value="+ Start()" style="text;strokeColor=none;fillColor=none;align=left;verticalAlign=top;spacingLeft=4;spacingRight=4;overflow=hidden;rotatable=0;points=[[0,0.5],[1,0.5]];portConstraint=eastwest;whiteSpace=wrap;html=1;" parent="qJG7EqIrgYHRXjXj1I9G-51" vertex="1">
          <mxGeometry y="156" width="400" height="26" as="geometry" />
        </mxCell>
        <mxCell id="qJG7EqIrgYHRXjXj1I9G-69" value="+ moveItemFromInventoryToToolBar(slot: InventorySlot)" style="text;strokeColor=none;fillColor=none;align=left;verticalAlign=top;spacingLeft=4;spacingRight=4;overflow=hidden;rotatable=0;points=[[0,0.5],[1,0.5]];portConstraint=eastwest;whiteSpace=wrap;html=1;" parent="qJG7EqIrgYHRXjXj1I9G-51" vertex="1">
          <mxGeometry y="182" width="400" height="26" as="geometry" />
        </mxCell>
        <mxCell id="qJG7EqIrgYHRXjXj1I9G-70" value="+ moveItemFromToolBarToInventory(slot: ToolSlot)" style="text;strokeColor=none;fillColor=none;align=left;verticalAlign=top;spacingLeft=4;spacingRight=4;overflow=hidden;rotatable=0;points=[[0,0.5],[1,0.5]];portConstraint=eastwest;whiteSpace=wrap;html=1;" parent="qJG7EqIrgYHRXjXj1I9G-51" vertex="1">
          <mxGeometry y="208" width="400" height="26" as="geometry" />
        </mxCell>
        <mxCell id="qJG7EqIrgYHRXjXj1I9G-71" value="Extends" style="endArrow=block;endSize=16;endFill=0;html=1;rounded=0;" parent="WIyWlLk6GJQsqaUBKTNV-1" source="qJG7EqIrgYHRXjXj1I9G-0" target="qJG7EqIrgYHRXjXj1I9G-51" edge="1">
          <mxGeometry width="160" relative="1" as="geometry">
            <mxPoint x="4950" y="766" as="sourcePoint" />
            <mxPoint x="5095" y="936" as="targetPoint" />
          </mxGeometry>
        </mxCell>
        <mxCell id="qJG7EqIrgYHRXjXj1I9G-197" value="&lt;font style=&quot;font-size: 36px;&quot;&gt;SLOT MENU BUTTONS&lt;/font&gt;" style="swimlane;whiteSpace=wrap;html=1;startSize=60;" parent="WIyWlLk6GJQsqaUBKTNV-1" vertex="1">
          <mxGeometry x="4830" y="1270" width="2160" height="1040" as="geometry" />
        </mxCell>
        <mxCell id="qJG7EqIrgYHRXjXj1I9G-72" value="&lt;font style=&quot;font-size: 18px;&quot;&gt;CloseMenuButton&lt;/font&gt;" style="swimlane;fontStyle=1;align=center;verticalAlign=top;childLayout=stackLayout;horizontal=1;startSize=26;horizontalStack=0;resizeParent=1;resizeParentMax=0;resizeLast=0;collapsible=1;marginBottom=0;whiteSpace=wrap;html=1;" parent="qJG7EqIrgYHRXjXj1I9G-197" vertex="1">
          <mxGeometry x="580" y="220" width="310" height="86" as="geometry" />
        </mxCell>
        <mxCell id="qJG7EqIrgYHRXjXj1I9G-74" value="" style="line;strokeWidth=1;fillColor=none;align=left;verticalAlign=middle;spacingTop=-1;spacingLeft=3;spacingRight=3;rotatable=0;labelPosition=right;points=[];portConstraint=eastwest;strokeColor=inherit;" parent="qJG7EqIrgYHRXjXj1I9G-72" vertex="1">
          <mxGeometry y="26" width="310" height="8" as="geometry" />
        </mxCell>
        <mxCell id="qJG7EqIrgYHRXjXj1I9G-75" value="+ Awake()" style="text;strokeColor=none;fillColor=none;align=left;verticalAlign=top;spacingLeft=4;spacingRight=4;overflow=hidden;rotatable=0;points=[[0,0.5],[1,0.5]];portConstraint=eastwest;whiteSpace=wrap;html=1;" parent="qJG7EqIrgYHRXjXj1I9G-72" vertex="1">
          <mxGeometry y="34" width="310" height="26" as="geometry" />
        </mxCell>
        <mxCell id="qJG7EqIrgYHRXjXj1I9G-76" value="+ OnPointerClick(pointerEventData: PointerEventData)" style="text;strokeColor=none;fillColor=none;align=left;verticalAlign=top;spacingLeft=4;spacingRight=4;overflow=hidden;rotatable=0;points=[[0,0.5],[1,0.5]];portConstraint=eastwest;whiteSpace=wrap;html=1;" parent="qJG7EqIrgYHRXjXj1I9G-72" vertex="1">
          <mxGeometry y="60" width="310" height="26" as="geometry" />
        </mxCell>
        <mxCell id="qJG7EqIrgYHRXjXj1I9G-77" value="&lt;font style=&quot;font-size: 18px;&quot;&gt;DropButton&lt;/font&gt;" style="swimlane;fontStyle=1;align=center;verticalAlign=top;childLayout=stackLayout;horizontal=1;startSize=26;horizontalStack=0;resizeParent=1;resizeParentMax=0;resizeLast=0;collapsible=1;marginBottom=0;whiteSpace=wrap;html=1;" parent="qJG7EqIrgYHRXjXj1I9G-197" vertex="1">
          <mxGeometry x="1430" y="464" width="270" height="112" as="geometry" />
        </mxCell>
        <mxCell id="qJG7EqIrgYHRXjXj1I9G-83" value="+ item: GameObject" style="text;strokeColor=none;fillColor=none;align=left;verticalAlign=top;spacingLeft=4;spacingRight=4;overflow=hidden;rotatable=0;points=[[0,0.5],[1,0.5]];portConstraint=eastwest;whiteSpace=wrap;html=1;" parent="qJG7EqIrgYHRXjXj1I9G-77" vertex="1">
          <mxGeometry y="26" width="270" height="26" as="geometry" />
        </mxCell>
        <mxCell id="qJG7EqIrgYHRXjXj1I9G-79" value="" style="line;strokeWidth=1;fillColor=none;align=left;verticalAlign=middle;spacingTop=-1;spacingLeft=3;spacingRight=3;rotatable=0;labelPosition=right;points=[];portConstraint=eastwest;strokeColor=inherit;" parent="qJG7EqIrgYHRXjXj1I9G-77" vertex="1">
          <mxGeometry y="52" width="270" height="8" as="geometry" />
        </mxCell>
        <mxCell id="qJG7EqIrgYHRXjXj1I9G-80" value="+ Awake()" style="text;strokeColor=none;fillColor=none;align=left;verticalAlign=top;spacingLeft=4;spacingRight=4;overflow=hidden;rotatable=0;points=[[0,0.5],[1,0.5]];portConstraint=eastwest;whiteSpace=wrap;html=1;" parent="qJG7EqIrgYHRXjXj1I9G-77" vertex="1">
          <mxGeometry y="60" width="270" height="26" as="geometry" />
        </mxCell>
        <mxCell id="qJG7EqIrgYHRXjXj1I9G-81" value="+ OnPointerClick(eventData: PointerEventData)" style="text;strokeColor=none;fillColor=none;align=left;verticalAlign=top;spacingLeft=4;spacingRight=4;overflow=hidden;rotatable=0;points=[[0,0.5],[1,0.5]];portConstraint=eastwest;whiteSpace=wrap;html=1;" parent="qJG7EqIrgYHRXjXj1I9G-77" vertex="1">
          <mxGeometry y="86" width="270" height="26" as="geometry" />
        </mxCell>
        <mxCell id="qJG7EqIrgYHRXjXj1I9G-84" value="&lt;font style=&quot;font-size: 18px;&quot;&gt;EquipButton&lt;/font&gt;" style="swimlane;fontStyle=1;align=center;verticalAlign=top;childLayout=stackLayout;horizontal=1;startSize=26;horizontalStack=0;resizeParent=1;resizeParentMax=0;resizeLast=0;collapsible=1;marginBottom=0;whiteSpace=wrap;html=1;" parent="qJG7EqIrgYHRXjXj1I9G-197" vertex="1">
          <mxGeometry x="820" y="477" width="290" height="86" as="geometry" />
        </mxCell>
        <mxCell id="qJG7EqIrgYHRXjXj1I9G-88" value="" style="line;strokeWidth=1;fillColor=none;align=left;verticalAlign=middle;spacingTop=-1;spacingLeft=3;spacingRight=3;rotatable=0;labelPosition=right;points=[];portConstraint=eastwest;strokeColor=inherit;" parent="qJG7EqIrgYHRXjXj1I9G-84" vertex="1">
          <mxGeometry y="26" width="290" height="8" as="geometry" />
        </mxCell>
        <mxCell id="qJG7EqIrgYHRXjXj1I9G-89" value="+ Awake()" style="text;strokeColor=none;fillColor=none;align=left;verticalAlign=top;spacingLeft=4;spacingRight=4;overflow=hidden;rotatable=0;points=[[0,0.5],[1,0.5]];portConstraint=eastwest;whiteSpace=wrap;html=1;" parent="qJG7EqIrgYHRXjXj1I9G-84" vertex="1">
          <mxGeometry y="34" width="290" height="26" as="geometry" />
        </mxCell>
        <mxCell id="qJG7EqIrgYHRXjXj1I9G-90" value="+ OnPointerClick(eventData: PointerEventData)" style="text;strokeColor=none;fillColor=none;align=left;verticalAlign=top;spacingLeft=4;spacingRight=4;overflow=hidden;rotatable=0;points=[[0,0.5],[1,0.5]];portConstraint=eastwest;whiteSpace=wrap;html=1;" parent="qJG7EqIrgYHRXjXj1I9G-84" vertex="1">
          <mxGeometry y="60" width="290" height="26" as="geometry" />
        </mxCell>
        <mxCell id="qJG7EqIrgYHRXjXj1I9G-91" value="&lt;font style=&quot;font-size: 18px;&quot;&gt;TakeBackButton&lt;/font&gt;" style="swimlane;fontStyle=1;align=center;verticalAlign=top;childLayout=stackLayout;horizontal=1;startSize=26;horizontalStack=0;resizeParent=1;resizeParentMax=0;resizeLast=0;collapsible=1;marginBottom=0;whiteSpace=wrap;html=1;" parent="qJG7EqIrgYHRXjXj1I9G-197" vertex="1">
          <mxGeometry x="900" y="220" width="320" height="138" as="geometry" />
        </mxCell>
        <mxCell id="qJG7EqIrgYHRXjXj1I9G-92" value="+ player: GameObject" style="text;strokeColor=none;fillColor=none;align=left;verticalAlign=top;spacingLeft=4;spacingRight=4;overflow=hidden;rotatable=0;points=[[0,0.5],[1,0.5]];portConstraint=eastwest;whiteSpace=wrap;html=1;" parent="qJG7EqIrgYHRXjXj1I9G-91" vertex="1">
          <mxGeometry y="26" width="320" height="26" as="geometry" />
        </mxCell>
        <mxCell id="qJG7EqIrgYHRXjXj1I9G-94" value="+ leftHandShield: GameObject" style="text;strokeColor=none;fillColor=none;align=left;verticalAlign=top;spacingLeft=4;spacingRight=4;overflow=hidden;rotatable=0;points=[[0,0.5],[1,0.5]];portConstraint=eastwest;whiteSpace=wrap;html=1;" parent="qJG7EqIrgYHRXjXj1I9G-91" vertex="1">
          <mxGeometry y="52" width="320" height="26" as="geometry" />
        </mxCell>
        <mxCell id="qJG7EqIrgYHRXjXj1I9G-95" value="" style="line;strokeWidth=1;fillColor=none;align=left;verticalAlign=middle;spacingTop=-1;spacingLeft=3;spacingRight=3;rotatable=0;labelPosition=right;points=[];portConstraint=eastwest;strokeColor=inherit;" parent="qJG7EqIrgYHRXjXj1I9G-91" vertex="1">
          <mxGeometry y="78" width="320" height="8" as="geometry" />
        </mxCell>
        <mxCell id="qJG7EqIrgYHRXjXj1I9G-96" value="+ Awake()" style="text;strokeColor=none;fillColor=none;align=left;verticalAlign=top;spacingLeft=4;spacingRight=4;overflow=hidden;rotatable=0;points=[[0,0.5],[1,0.5]];portConstraint=eastwest;whiteSpace=wrap;html=1;" parent="qJG7EqIrgYHRXjXj1I9G-91" vertex="1">
          <mxGeometry y="86" width="320" height="26" as="geometry" />
        </mxCell>
        <mxCell id="qJG7EqIrgYHRXjXj1I9G-97" value="+ OnPointerClick(pointerEventData: PointerEventData)" style="text;strokeColor=none;fillColor=none;align=left;verticalAlign=top;spacingLeft=4;spacingRight=4;overflow=hidden;rotatable=0;points=[[0,0.5],[1,0.5]];portConstraint=eastwest;whiteSpace=wrap;html=1;" parent="qJG7EqIrgYHRXjXj1I9G-91" vertex="1">
          <mxGeometry y="112" width="320" height="26" as="geometry" />
        </mxCell>
        <mxCell id="qJG7EqIrgYHRXjXj1I9G-98" value="&lt;font style=&quot;font-size: 18px;&quot;&gt;UseButton&lt;/font&gt;" style="swimlane;fontStyle=1;align=center;verticalAlign=top;childLayout=stackLayout;horizontal=1;startSize=26;horizontalStack=0;resizeParent=1;resizeParentMax=0;resizeLast=0;collapsible=1;marginBottom=0;whiteSpace=wrap;html=1;" parent="qJG7EqIrgYHRXjXj1I9G-197" vertex="1">
          <mxGeometry x="1720" y="464" width="280" height="320" as="geometry" />
        </mxCell>
        <mxCell id="qJG7EqIrgYHRXjXj1I9G-105" value="+ inputSlot1: GameObject" style="text;strokeColor=none;fillColor=none;align=left;verticalAlign=top;spacingLeft=4;spacingRight=4;overflow=hidden;rotatable=0;points=[[0,0.5],[1,0.5]];portConstraint=eastwest;whiteSpace=wrap;html=1;" parent="qJG7EqIrgYHRXjXj1I9G-98" vertex="1">
          <mxGeometry y="26" width="280" height="26" as="geometry" />
        </mxCell>
        <mxCell id="qJG7EqIrgYHRXjXj1I9G-106" value="+ inputSlot2: GameObject" style="text;strokeColor=none;fillColor=none;align=left;verticalAlign=top;spacingLeft=4;spacingRight=4;overflow=hidden;rotatable=0;points=[[0,0.5],[1,0.5]];portConstraint=eastwest;whiteSpace=wrap;html=1;" parent="qJG7EqIrgYHRXjXj1I9G-98" vertex="1">
          <mxGeometry y="52" width="280" height="26" as="geometry" />
        </mxCell>
        <mxCell id="qJG7EqIrgYHRXjXj1I9G-187" value="+ inputSlot3: GameObject" style="text;strokeColor=none;fillColor=none;align=left;verticalAlign=top;spacingLeft=4;spacingRight=4;overflow=hidden;rotatable=0;points=[[0,0.5],[1,0.5]];portConstraint=eastwest;whiteSpace=wrap;html=1;" parent="qJG7EqIrgYHRXjXj1I9G-98" vertex="1">
          <mxGeometry y="78" width="280" height="26" as="geometry" />
        </mxCell>
        <mxCell id="qJG7EqIrgYHRXjXj1I9G-115" value="+ furnace: GameObject" style="text;strokeColor=none;fillColor=none;align=left;verticalAlign=top;spacingLeft=4;spacingRight=4;overflow=hidden;rotatable=0;points=[[0,0.5],[1,0.5]];portConstraint=eastwest;whiteSpace=wrap;html=1;" parent="qJG7EqIrgYHRXjXj1I9G-98" vertex="1">
          <mxGeometry y="104" width="280" height="26" as="geometry" />
        </mxCell>
        <mxCell id="qJG7EqIrgYHRXjXj1I9G-188" value="+ workBench: GameObject" style="text;strokeColor=none;fillColor=none;align=left;verticalAlign=top;spacingLeft=4;spacingRight=4;overflow=hidden;rotatable=0;points=[[0,0.5],[1,0.5]];portConstraint=eastwest;whiteSpace=wrap;html=1;" parent="qJG7EqIrgYHRXjXj1I9G-98" vertex="1">
          <mxGeometry y="130" width="280" height="26" as="geometry" />
        </mxCell>
        <mxCell id="qJG7EqIrgYHRXjXj1I9G-189" value="+ merchant: GameObject" style="text;strokeColor=none;fillColor=none;align=left;verticalAlign=top;spacingLeft=4;spacingRight=4;overflow=hidden;rotatable=0;points=[[0,0.5],[1,0.5]];portConstraint=eastwest;whiteSpace=wrap;html=1;" parent="qJG7EqIrgYHRXjXj1I9G-98" vertex="1">
          <mxGeometry y="156" width="280" height="26" as="geometry" />
        </mxCell>
        <mxCell id="qJG7EqIrgYHRXjXj1I9G-102" value="" style="line;strokeWidth=1;fillColor=none;align=left;verticalAlign=middle;spacingTop=-1;spacingLeft=3;spacingRight=3;rotatable=0;labelPosition=right;points=[];portConstraint=eastwest;strokeColor=inherit;" parent="qJG7EqIrgYHRXjXj1I9G-98" vertex="1">
          <mxGeometry y="182" width="280" height="8" as="geometry" />
        </mxCell>
        <mxCell id="qJG7EqIrgYHRXjXj1I9G-148" value="+ Awake()" style="text;strokeColor=none;fillColor=none;align=left;verticalAlign=top;spacingLeft=4;spacingRight=4;overflow=hidden;rotatable=0;points=[[0,0.5],[1,0.5]];portConstraint=eastwest;whiteSpace=wrap;html=1;" parent="qJG7EqIrgYHRXjXj1I9G-98" vertex="1">
          <mxGeometry y="190" width="280" height="26" as="geometry" />
        </mxCell>
        <mxCell id="qJG7EqIrgYHRXjXj1I9G-149" value="+ OnPointerClick(eventData: PointerEventData)" style="text;strokeColor=none;fillColor=none;align=left;verticalAlign=top;spacingLeft=4;spacingRight=4;overflow=hidden;rotatable=0;points=[[0,0.5],[1,0.5]];portConstraint=eastwest;whiteSpace=wrap;html=1;" parent="qJG7EqIrgYHRXjXj1I9G-98" vertex="1">
          <mxGeometry y="216" width="280" height="26" as="geometry" />
        </mxCell>
        <mxCell id="qJG7EqIrgYHRXjXj1I9G-183" value="+ FurnaceMode()" style="text;strokeColor=none;fillColor=none;align=left;verticalAlign=top;spacingLeft=4;spacingRight=4;overflow=hidden;rotatable=0;points=[[0,0.5],[1,0.5]];portConstraint=eastwest;whiteSpace=wrap;html=1;" parent="qJG7EqIrgYHRXjXj1I9G-98" vertex="1">
          <mxGeometry y="242" width="280" height="26" as="geometry" />
        </mxCell>
        <mxCell id="qJG7EqIrgYHRXjXj1I9G-190" value="+ CraftingMode()" style="text;strokeColor=none;fillColor=none;align=left;verticalAlign=top;spacingLeft=4;spacingRight=4;overflow=hidden;rotatable=0;points=[[0,0.5],[1,0.5]];portConstraint=eastwest;whiteSpace=wrap;html=1;" parent="qJG7EqIrgYHRXjXj1I9G-98" vertex="1">
          <mxGeometry y="268" width="280" height="26" as="geometry" />
        </mxCell>
        <mxCell id="qJG7EqIrgYHRXjXj1I9G-191" value="+ ShoppingMode()" style="text;strokeColor=none;fillColor=none;align=left;verticalAlign=top;spacingLeft=4;spacingRight=4;overflow=hidden;rotatable=0;points=[[0,0.5],[1,0.5]];portConstraint=eastwest;whiteSpace=wrap;html=1;" parent="qJG7EqIrgYHRXjXj1I9G-98" vertex="1">
          <mxGeometry y="294" width="280" height="26" as="geometry" />
        </mxCell>
        <mxCell id="qJG7EqIrgYHRXjXj1I9G-116" value="&lt;font style=&quot;font-size: 18px;&quot;&gt;ButtonAbstractClassLvl1&lt;/font&gt;" style="swimlane;fontStyle=1;align=center;verticalAlign=top;childLayout=stackLayout;horizontal=1;startSize=26;horizontalStack=0;resizeParent=1;resizeParentMax=0;resizeLast=0;collapsible=1;marginBottom=0;whiteSpace=wrap;html=1;" parent="qJG7EqIrgYHRXjXj1I9G-197" vertex="1">
          <mxGeometry x="780" y="100" width="700" height="60" as="geometry" />
        </mxCell>
        <mxCell id="qJG7EqIrgYHRXjXj1I9G-117" value="+ menu: GameObject" style="text;strokeColor=none;fillColor=none;align=left;verticalAlign=top;spacingLeft=4;spacingRight=4;overflow=hidden;rotatable=0;points=[[0,0.5],[1,0.5]];portConstraint=eastwest;whiteSpace=wrap;html=1;" parent="qJG7EqIrgYHRXjXj1I9G-116" vertex="1">
          <mxGeometry y="26" width="700" height="26" as="geometry" />
        </mxCell>
        <mxCell id="qJG7EqIrgYHRXjXj1I9G-118" value="" style="line;strokeWidth=1;fillColor=none;align=left;verticalAlign=middle;spacingTop=-1;spacingLeft=3;spacingRight=3;rotatable=0;labelPosition=right;points=[];portConstraint=eastwest;strokeColor=inherit;" parent="qJG7EqIrgYHRXjXj1I9G-116" vertex="1">
          <mxGeometry y="52" width="700" height="8" as="geometry" />
        </mxCell>
        <mxCell id="qJG7EqIrgYHRXjXj1I9G-121" value="Extends" style="endArrow=block;endSize=16;endFill=0;html=1;rounded=0;entryX=0.589;entryY=-0.036;entryDx=0;entryDy=0;entryPerimeter=0;" parent="qJG7EqIrgYHRXjXj1I9G-197" source="qJG7EqIrgYHRXjXj1I9G-116" target="qJG7EqIrgYHRXjXj1I9G-72" edge="1">
          <mxGeometry width="160" relative="1" as="geometry">
            <mxPoint x="-203" y="44" as="sourcePoint" />
            <mxPoint x="-340" y="318" as="targetPoint" />
          </mxGeometry>
        </mxCell>
        <mxCell id="qJG7EqIrgYHRXjXj1I9G-122" value="Extends" style="endArrow=block;endSize=16;endFill=0;html=1;rounded=0;entryX=0.297;entryY=0.002;entryDx=0;entryDy=0;entryPerimeter=0;" parent="qJG7EqIrgYHRXjXj1I9G-197" source="qJG7EqIrgYHRXjXj1I9G-116" target="qJG7EqIrgYHRXjXj1I9G-91" edge="1">
          <mxGeometry width="160" relative="1" as="geometry">
            <mxPoint x="505" y="74" as="sourcePoint" />
            <mxPoint x="-50" y="408" as="targetPoint" />
          </mxGeometry>
        </mxCell>
        <mxCell id="qJG7EqIrgYHRXjXj1I9G-123" value="&lt;font style=&quot;font-size: 18px;&quot;&gt;ButtonAbstractClassLvl2&lt;/font&gt;" style="swimlane;fontStyle=1;align=center;verticalAlign=top;childLayout=stackLayout;horizontal=1;startSize=26;horizontalStack=0;resizeParent=1;resizeParentMax=0;resizeLast=0;collapsible=1;marginBottom=0;whiteSpace=wrap;html=1;" parent="qJG7EqIrgYHRXjXj1I9G-197" vertex="1">
          <mxGeometry x="1248" y="220" width="250" height="86" as="geometry" />
        </mxCell>
        <mxCell id="qJG7EqIrgYHRXjXj1I9G-128" value="+ slot: GameObject" style="text;strokeColor=none;fillColor=none;align=left;verticalAlign=top;spacingLeft=4;spacingRight=4;overflow=hidden;rotatable=0;points=[[0,0.5],[1,0.5]];portConstraint=eastwest;whiteSpace=wrap;html=1;" parent="qJG7EqIrgYHRXjXj1I9G-123" vertex="1">
          <mxGeometry y="26" width="250" height="26" as="geometry" />
        </mxCell>
        <mxCell id="qJG7EqIrgYHRXjXj1I9G-129" value="+ inventorySlot: InventorySlot" style="text;strokeColor=none;fillColor=none;align=left;verticalAlign=top;spacingLeft=4;spacingRight=4;overflow=hidden;rotatable=0;points=[[0,0.5],[1,0.5]];portConstraint=eastwest;whiteSpace=wrap;html=1;" parent="qJG7EqIrgYHRXjXj1I9G-123" vertex="1">
          <mxGeometry y="52" width="250" height="26" as="geometry" />
        </mxCell>
        <mxCell id="qJG7EqIrgYHRXjXj1I9G-125" value="" style="line;strokeWidth=1;fillColor=none;align=left;verticalAlign=middle;spacingTop=-1;spacingLeft=3;spacingRight=3;rotatable=0;labelPosition=right;points=[];portConstraint=eastwest;strokeColor=inherit;" parent="qJG7EqIrgYHRXjXj1I9G-123" vertex="1">
          <mxGeometry y="78" width="250" height="8" as="geometry" />
        </mxCell>
        <mxCell id="qJG7EqIrgYHRXjXj1I9G-130" value="Extends" style="endArrow=block;endSize=16;endFill=0;html=1;rounded=0;" parent="qJG7EqIrgYHRXjXj1I9G-197" source="qJG7EqIrgYHRXjXj1I9G-116" target="qJG7EqIrgYHRXjXj1I9G-123" edge="1">
          <mxGeometry width="160" relative="1" as="geometry">
            <mxPoint x="773" y="-16" as="sourcePoint" />
            <mxPoint x="720" y="322" as="targetPoint" />
          </mxGeometry>
        </mxCell>
        <mxCell id="qJG7EqIrgYHRXjXj1I9G-131" value="Extends" style="endArrow=block;endSize=16;endFill=0;html=1;rounded=0;" parent="qJG7EqIrgYHRXjXj1I9G-197" source="qJG7EqIrgYHRXjXj1I9G-123" target="qJG7EqIrgYHRXjXj1I9G-84" edge="1">
          <mxGeometry width="160" relative="1" as="geometry">
            <mxPoint x="460" y="464" as="sourcePoint" />
            <mxPoint x="1114" y="802" as="targetPoint" />
          </mxGeometry>
        </mxCell>
        <mxCell id="qJG7EqIrgYHRXjXj1I9G-132" value="Extends" style="endArrow=block;endSize=16;endFill=0;html=1;rounded=0;" parent="qJG7EqIrgYHRXjXj1I9G-197" source="qJG7EqIrgYHRXjXj1I9G-123" target="qJG7EqIrgYHRXjXj1I9G-77" edge="1">
          <mxGeometry width="160" relative="1" as="geometry">
            <mxPoint x="1192" y="518" as="sourcePoint" />
            <mxPoint x="1168" y="784" as="targetPoint" />
          </mxGeometry>
        </mxCell>
        <mxCell id="qJG7EqIrgYHRXjXj1I9G-133" value="Extends" style="endArrow=block;endSize=16;endFill=0;html=1;rounded=0;entryX=0.33;entryY=0.004;entryDx=0;entryDy=0;entryPerimeter=0;" parent="qJG7EqIrgYHRXjXj1I9G-197" source="qJG7EqIrgYHRXjXj1I9G-123" target="qJG7EqIrgYHRXjXj1I9G-98" edge="1">
          <mxGeometry width="160" relative="1" as="geometry">
            <mxPoint x="1202" y="528" as="sourcePoint" />
            <mxPoint x="1178" y="794" as="targetPoint" />
          </mxGeometry>
        </mxCell>
        <mxCell id="qJG7EqIrgYHRXjXj1I9G-192" value="&lt;font style=&quot;font-size: 18px;&quot;&gt;UnequipButton&lt;/font&gt;" style="swimlane;fontStyle=1;align=center;verticalAlign=top;childLayout=stackLayout;horizontal=1;startSize=26;horizontalStack=0;resizeParent=1;resizeParentMax=0;resizeLast=0;collapsible=1;marginBottom=0;whiteSpace=wrap;html=1;" parent="qJG7EqIrgYHRXjXj1I9G-197" vertex="1">
          <mxGeometry x="1130" y="470" width="290" height="86" as="geometry" />
        </mxCell>
        <mxCell id="qJG7EqIrgYHRXjXj1I9G-193" value="" style="line;strokeWidth=1;fillColor=none;align=left;verticalAlign=middle;spacingTop=-1;spacingLeft=3;spacingRight=3;rotatable=0;labelPosition=right;points=[];portConstraint=eastwest;strokeColor=inherit;" parent="qJG7EqIrgYHRXjXj1I9G-192" vertex="1">
          <mxGeometry y="26" width="290" height="8" as="geometry" />
        </mxCell>
        <mxCell id="qJG7EqIrgYHRXjXj1I9G-194" value="+ Awake()" style="text;strokeColor=none;fillColor=none;align=left;verticalAlign=top;spacingLeft=4;spacingRight=4;overflow=hidden;rotatable=0;points=[[0,0.5],[1,0.5]];portConstraint=eastwest;whiteSpace=wrap;html=1;" parent="qJG7EqIrgYHRXjXj1I9G-192" vertex="1">
          <mxGeometry y="34" width="290" height="26" as="geometry" />
        </mxCell>
        <mxCell id="qJG7EqIrgYHRXjXj1I9G-195" value="+ OnPointerClick(eventData: PointerEventData)" style="text;strokeColor=none;fillColor=none;align=left;verticalAlign=top;spacingLeft=4;spacingRight=4;overflow=hidden;rotatable=0;points=[[0,0.5],[1,0.5]];portConstraint=eastwest;whiteSpace=wrap;html=1;" parent="qJG7EqIrgYHRXjXj1I9G-192" vertex="1">
          <mxGeometry y="60" width="290" height="26" as="geometry" />
        </mxCell>
        <mxCell id="qJG7EqIrgYHRXjXj1I9G-196" value="Extends" style="endArrow=block;endSize=16;endFill=0;html=1;rounded=0;" parent="qJG7EqIrgYHRXjXj1I9G-197" source="qJG7EqIrgYHRXjXj1I9G-123" target="qJG7EqIrgYHRXjXj1I9G-192" edge="1">
          <mxGeometry width="160" relative="1" as="geometry">
            <mxPoint x="574" y="440" as="sourcePoint" />
            <mxPoint x="456" y="604" as="targetPoint" />
          </mxGeometry>
        </mxCell>
        <mxCell id="qJG7EqIrgYHRXjXj1I9G-198" value="Vampire" style="swimlane;fontStyle=1;align=center;verticalAlign=top;childLayout=stackLayout;horizontal=1;startSize=26;horizontalStack=0;resizeParent=1;resizeParentMax=0;resizeLast=0;collapsible=1;marginBottom=0;whiteSpace=wrap;html=1;" parent="WIyWlLk6GJQsqaUBKTNV-1" vertex="1">
          <mxGeometry x="3150" y="1996" width="280" height="112" as="geometry" />
        </mxCell>
        <mxCell id="qJG7EqIrgYHRXjXj1I9G-205" value="" style="line;strokeWidth=1;fillColor=none;align=left;verticalAlign=middle;spacingTop=-1;spacingLeft=3;spacingRight=3;rotatable=0;labelPosition=right;points=[];portConstraint=eastwest;strokeColor=inherit;" parent="qJG7EqIrgYHRXjXj1I9G-198" vertex="1">
          <mxGeometry y="26" width="280" height="8" as="geometry" />
        </mxCell>
        <mxCell id="qJG7EqIrgYHRXjXj1I9G-206" value="+ Awake()" style="text;strokeColor=none;fillColor=none;align=left;verticalAlign=top;spacingLeft=4;spacingRight=4;overflow=hidden;rotatable=0;points=[[0,0.5],[1,0.5]];portConstraint=eastwest;whiteSpace=wrap;html=1;" parent="qJG7EqIrgYHRXjXj1I9G-198" vertex="1">
          <mxGeometry y="34" width="280" height="26" as="geometry" />
        </mxCell>
        <mxCell id="qJG7EqIrgYHRXjXj1I9G-207" value="+ TakeDamage(damageAmount: Integer)&lt;div&gt;&lt;br&gt;&lt;/div&gt;" style="text;strokeColor=none;fillColor=none;align=left;verticalAlign=top;spacingLeft=4;spacingRight=4;overflow=hidden;rotatable=0;points=[[0,0.5],[1,0.5]];portConstraint=eastwest;whiteSpace=wrap;html=1;" parent="qJG7EqIrgYHRXjXj1I9G-198" vertex="1">
          <mxGeometry y="60" width="280" height="26" as="geometry" />
        </mxCell>
        <mxCell id="qJG7EqIrgYHRXjXj1I9G-208" value="+ OnDrawGizmosSelected()" style="text;strokeColor=none;fillColor=none;align=left;verticalAlign=top;spacingLeft=4;spacingRight=4;overflow=hidden;rotatable=0;points=[[0,0.5],[1,0.5]];portConstraint=eastwest;whiteSpace=wrap;html=1;" parent="qJG7EqIrgYHRXjXj1I9G-198" vertex="1">
          <mxGeometry y="86" width="280" height="26" as="geometry" />
        </mxCell>
        <mxCell id="qJG7EqIrgYHRXjXj1I9G-212" value="Dragon" style="swimlane;fontStyle=1;align=center;verticalAlign=top;childLayout=stackLayout;horizontal=1;startSize=26;horizontalStack=0;resizeParent=1;resizeParentMax=0;resizeLast=0;collapsible=1;marginBottom=0;whiteSpace=wrap;html=1;" parent="WIyWlLk6GJQsqaUBKTNV-1" vertex="1">
          <mxGeometry x="3780" y="1996" width="280" height="138" as="geometry" />
        </mxCell>
        <mxCell id="qJG7EqIrgYHRXjXj1I9G-220" value="" style="line;strokeWidth=1;fillColor=none;align=left;verticalAlign=middle;spacingTop=-1;spacingLeft=3;spacingRight=3;rotatable=0;labelPosition=right;points=[];portConstraint=eastwest;strokeColor=inherit;" parent="qJG7EqIrgYHRXjXj1I9G-212" vertex="1">
          <mxGeometry y="26" width="280" height="8" as="geometry" />
        </mxCell>
        <mxCell id="qJG7EqIrgYHRXjXj1I9G-221" value="+ Awake()" style="text;strokeColor=none;fillColor=none;align=left;verticalAlign=top;spacingLeft=4;spacingRight=4;overflow=hidden;rotatable=0;points=[[0,0.5],[1,0.5]];portConstraint=eastwest;whiteSpace=wrap;html=1;" parent="qJG7EqIrgYHRXjXj1I9G-212" vertex="1">
          <mxGeometry y="34" width="280" height="26" as="geometry" />
        </mxCell>
        <mxCell id="qJG7EqIrgYHRXjXj1I9G-222" value="+ TakeDamage(damageAmount: Integer)&lt;div&gt;&lt;br&gt;&lt;/div&gt;" style="text;strokeColor=none;fillColor=none;align=left;verticalAlign=top;spacingLeft=4;spacingRight=4;overflow=hidden;rotatable=0;points=[[0,0.5],[1,0.5]];portConstraint=eastwest;whiteSpace=wrap;html=1;" parent="qJG7EqIrgYHRXjXj1I9G-212" vertex="1">
          <mxGeometry y="60" width="280" height="26" as="geometry" />
        </mxCell>
        <mxCell id="qJG7EqIrgYHRXjXj1I9G-223" value="+ OnDrawGizmosSelected()" style="text;strokeColor=none;fillColor=none;align=left;verticalAlign=top;spacingLeft=4;spacingRight=4;overflow=hidden;rotatable=0;points=[[0,0.5],[1,0.5]];portConstraint=eastwest;whiteSpace=wrap;html=1;" parent="qJG7EqIrgYHRXjXj1I9G-212" vertex="1">
          <mxGeometry y="86" width="280" height="26" as="geometry" />
        </mxCell>
        <mxCell id="qJG7EqIrgYHRXjXj1I9G-224" value="+ RotateCoroutine(animator: Animator)" style="text;strokeColor=none;fillColor=none;align=left;verticalAlign=top;spacingLeft=4;spacingRight=4;overflow=hidden;rotatable=0;points=[[0,0.5],[1,0.5]];portConstraint=eastwest;whiteSpace=wrap;html=1;" parent="qJG7EqIrgYHRXjXj1I9G-212" vertex="1">
          <mxGeometry y="112" width="280" height="26" as="geometry" />
        </mxCell>
        <mxCell id="l1Z2_5R1PRk5aAiY4Urt-0" value="EnemyAbstractClass" style="swimlane;fontStyle=1;align=center;verticalAlign=top;childLayout=stackLayout;horizontal=1;startSize=26;horizontalStack=0;resizeParent=1;resizeParentMax=0;resizeLast=0;collapsible=1;marginBottom=0;whiteSpace=wrap;html=1;" parent="WIyWlLk6GJQsqaUBKTNV-1" vertex="1">
          <mxGeometry x="3500" y="1600" width="280" height="164" as="geometry" />
        </mxCell>
        <mxCell id="l1Z2_5R1PRk5aAiY4Urt-2" value="+ xp: float" style="text;strokeColor=none;fillColor=none;align=left;verticalAlign=top;spacingLeft=4;spacingRight=4;overflow=hidden;rotatable=0;points=[[0,0.5],[1,0.5]];portConstraint=eastwest;whiteSpace=wrap;html=1;" parent="l1Z2_5R1PRk5aAiY4Urt-0" vertex="1">
          <mxGeometry y="26" width="280" height="26" as="geometry" />
        </mxCell>
        <mxCell id="l1Z2_5R1PRk5aAiY4Urt-3" value="+ animator: Animator" style="text;strokeColor=none;fillColor=none;align=left;verticalAlign=top;spacingLeft=4;spacingRight=4;overflow=hidden;rotatable=0;points=[[0,0.5],[1,0.5]];portConstraint=eastwest;whiteSpace=wrap;html=1;" parent="l1Z2_5R1PRk5aAiY4Urt-0" vertex="1">
          <mxGeometry y="52" width="280" height="26" as="geometry" />
        </mxCell>
        <mxCell id="l1Z2_5R1PRk5aAiY4Urt-4" value="+ navMeshAgent: NavMeshAgent" style="text;strokeColor=none;fillColor=none;align=left;verticalAlign=top;spacingLeft=4;spacingRight=4;overflow=hidden;rotatable=0;points=[[0,0.5],[1,0.5]];portConstraint=eastwest;whiteSpace=wrap;html=1;" parent="l1Z2_5R1PRk5aAiY4Urt-0" vertex="1">
          <mxGeometry y="78" width="280" height="26" as="geometry" />
        </mxCell>
        <mxCell id="l1Z2_5R1PRk5aAiY4Urt-5" value="+ sceneManager: GameObject" style="text;strokeColor=none;fillColor=none;align=left;verticalAlign=top;spacingLeft=4;spacingRight=4;overflow=hidden;rotatable=0;points=[[0,0.5],[1,0.5]];portConstraint=eastwest;whiteSpace=wrap;html=1;" parent="l1Z2_5R1PRk5aAiY4Urt-0" vertex="1">
          <mxGeometry y="104" width="280" height="26" as="geometry" />
        </mxCell>
        <mxCell id="l1Z2_5R1PRk5aAiY4Urt-8" value="" style="line;strokeWidth=1;fillColor=none;align=left;verticalAlign=middle;spacingTop=-1;spacingLeft=3;spacingRight=3;rotatable=0;labelPosition=right;points=[];portConstraint=eastwest;strokeColor=inherit;" parent="l1Z2_5R1PRk5aAiY4Urt-0" vertex="1">
          <mxGeometry y="130" width="280" height="8" as="geometry" />
        </mxCell>
        <mxCell id="l1Z2_5R1PRk5aAiY4Urt-10" value="+ abstract TakeDamage(damageAmount: Integer)&lt;div&gt;&lt;br&gt;&lt;/div&gt;" style="text;strokeColor=none;fillColor=none;align=left;verticalAlign=top;spacingLeft=4;spacingRight=4;overflow=hidden;rotatable=0;points=[[0,0.5],[1,0.5]];portConstraint=eastwest;whiteSpace=wrap;html=1;" parent="l1Z2_5R1PRk5aAiY4Urt-0" vertex="1">
          <mxGeometry y="138" width="280" height="26" as="geometry" />
        </mxCell>
        <mxCell id="l1Z2_5R1PRk5aAiY4Urt-24" value="Werewolf" style="swimlane;fontStyle=1;align=center;verticalAlign=top;childLayout=stackLayout;horizontal=1;startSize=26;horizontalStack=0;resizeParent=1;resizeParentMax=0;resizeLast=0;collapsible=1;marginBottom=0;whiteSpace=wrap;html=1;" parent="WIyWlLk6GJQsqaUBKTNV-1" vertex="1">
          <mxGeometry x="3460" y="1996" width="280" height="138" as="geometry" />
        </mxCell>
        <mxCell id="l1Z2_5R1PRk5aAiY4Urt-29" value="+ keyPrefab: GameObject" style="text;strokeColor=none;fillColor=none;align=left;verticalAlign=top;spacingLeft=4;spacingRight=4;overflow=hidden;rotatable=0;points=[[0,0.5],[1,0.5]];portConstraint=eastwest;whiteSpace=wrap;html=1;" parent="l1Z2_5R1PRk5aAiY4Urt-24" vertex="1">
          <mxGeometry y="26" width="280" height="26" as="geometry" />
        </mxCell>
        <mxCell id="l1Z2_5R1PRk5aAiY4Urt-25" value="" style="line;strokeWidth=1;fillColor=none;align=left;verticalAlign=middle;spacingTop=-1;spacingLeft=3;spacingRight=3;rotatable=0;labelPosition=right;points=[];portConstraint=eastwest;strokeColor=inherit;" parent="l1Z2_5R1PRk5aAiY4Urt-24" vertex="1">
          <mxGeometry y="52" width="280" height="8" as="geometry" />
        </mxCell>
        <mxCell id="l1Z2_5R1PRk5aAiY4Urt-26" value="+ Awake()" style="text;strokeColor=none;fillColor=none;align=left;verticalAlign=top;spacingLeft=4;spacingRight=4;overflow=hidden;rotatable=0;points=[[0,0.5],[1,0.5]];portConstraint=eastwest;whiteSpace=wrap;html=1;" parent="l1Z2_5R1PRk5aAiY4Urt-24" vertex="1">
          <mxGeometry y="60" width="280" height="26" as="geometry" />
        </mxCell>
        <mxCell id="l1Z2_5R1PRk5aAiY4Urt-27" value="+ TakeDamage(damageAmount: Integer)&lt;div&gt;&lt;br&gt;&lt;/div&gt;" style="text;strokeColor=none;fillColor=none;align=left;verticalAlign=top;spacingLeft=4;spacingRight=4;overflow=hidden;rotatable=0;points=[[0,0.5],[1,0.5]];portConstraint=eastwest;whiteSpace=wrap;html=1;" parent="l1Z2_5R1PRk5aAiY4Urt-24" vertex="1">
          <mxGeometry y="86" width="280" height="26" as="geometry" />
        </mxCell>
        <mxCell id="l1Z2_5R1PRk5aAiY4Urt-28" value="+ OnDrawGizmosSelected()" style="text;strokeColor=none;fillColor=none;align=left;verticalAlign=top;spacingLeft=4;spacingRight=4;overflow=hidden;rotatable=0;points=[[0,0.5],[1,0.5]];portConstraint=eastwest;whiteSpace=wrap;html=1;" parent="l1Z2_5R1PRk5aAiY4Urt-24" vertex="1">
          <mxGeometry y="112" width="280" height="26" as="geometry" />
        </mxCell>
        <mxCell id="l1Z2_5R1PRk5aAiY4Urt-30" value="Extends" style="endArrow=block;endSize=16;endFill=0;html=1;rounded=0;entryX=0.427;entryY=0.011;entryDx=0;entryDy=0;entryPerimeter=0;" parent="WIyWlLk6GJQsqaUBKTNV-1" source="l1Z2_5R1PRk5aAiY4Urt-0" target="qJG7EqIrgYHRXjXj1I9G-198" edge="1">
          <mxGeometry width="160" relative="1" as="geometry">
            <mxPoint x="3397" y="1676" as="sourcePoint" />
            <mxPoint x="3260" y="1950" as="targetPoint" />
          </mxGeometry>
        </mxCell>
        <mxCell id="l1Z2_5R1PRk5aAiY4Urt-31" value="Extends" style="endArrow=block;endSize=16;endFill=0;html=1;rounded=0;" parent="WIyWlLk6GJQsqaUBKTNV-1" source="l1Z2_5R1PRk5aAiY4Urt-0" target="l1Z2_5R1PRk5aAiY4Urt-24" edge="1">
          <mxGeometry width="160" relative="1" as="geometry">
            <mxPoint x="3510" y="1849" as="sourcePoint" />
            <mxPoint x="3270" y="2007" as="targetPoint" />
          </mxGeometry>
        </mxCell>
        <mxCell id="l1Z2_5R1PRk5aAiY4Urt-32" value="Extends" style="endArrow=block;endSize=16;endFill=0;html=1;rounded=0;" parent="WIyWlLk6GJQsqaUBKTNV-1" source="l1Z2_5R1PRk5aAiY4Urt-0" target="qJG7EqIrgYHRXjXj1I9G-212" edge="1">
          <mxGeometry width="160" relative="1" as="geometry">
            <mxPoint x="3641" y="1904" as="sourcePoint" />
            <mxPoint x="3634" y="2006" as="targetPoint" />
          </mxGeometry>
        </mxCell>
        <mxCell id="l1Z2_5R1PRk5aAiY4Urt-33" value="IInteractable" style="swimlane;fontStyle=1;align=center;verticalAlign=top;childLayout=stackLayout;horizontal=1;startSize=26;horizontalStack=0;resizeParent=1;resizeParentMax=0;resizeLast=0;collapsible=1;marginBottom=0;whiteSpace=wrap;html=1;" parent="WIyWlLk6GJQsqaUBKTNV-1" vertex="1">
          <mxGeometry x="2110" y="1518" width="280" height="60" as="geometry" />
        </mxCell>
        <mxCell id="l1Z2_5R1PRk5aAiY4Urt-41" value="" style="line;strokeWidth=1;fillColor=none;align=left;verticalAlign=middle;spacingTop=-1;spacingLeft=3;spacingRight=3;rotatable=0;labelPosition=right;points=[];portConstraint=eastwest;strokeColor=inherit;" parent="l1Z2_5R1PRk5aAiY4Urt-33" vertex="1">
          <mxGeometry y="26" width="280" height="8" as="geometry" />
        </mxCell>
        <mxCell id="l1Z2_5R1PRk5aAiY4Urt-42" value="+ abstract Interact(interactor: Interactor)" style="text;strokeColor=none;fillColor=none;align=left;verticalAlign=top;spacingLeft=4;spacingRight=4;overflow=hidden;rotatable=0;points=[[0,0.5],[1,0.5]];portConstraint=eastwest;whiteSpace=wrap;html=1;" parent="l1Z2_5R1PRk5aAiY4Urt-33" vertex="1">
          <mxGeometry y="34" width="280" height="26" as="geometry" />
        </mxCell>
        <mxCell id="l1Z2_5R1PRk5aAiY4Urt-45" value="WorkBench" style="swimlane;fontStyle=1;align=center;verticalAlign=top;childLayout=stackLayout;horizontal=1;startSize=26;horizontalStack=0;resizeParent=1;resizeParentMax=0;resizeLast=0;collapsible=1;marginBottom=0;whiteSpace=wrap;html=1;" parent="WIyWlLk6GJQsqaUBKTNV-1" vertex="1">
          <mxGeometry x="1560" y="2190" width="280" height="60" as="geometry" />
        </mxCell>
        <mxCell id="l1Z2_5R1PRk5aAiY4Urt-46" value="" style="line;strokeWidth=1;fillColor=none;align=left;verticalAlign=middle;spacingTop=-1;spacingLeft=3;spacingRight=3;rotatable=0;labelPosition=right;points=[];portConstraint=eastwest;strokeColor=inherit;" parent="l1Z2_5R1PRk5aAiY4Urt-45" vertex="1">
          <mxGeometry y="26" width="280" height="8" as="geometry" />
        </mxCell>
        <mxCell id="l1Z2_5R1PRk5aAiY4Urt-55" value="- Awake()" style="text;strokeColor=none;fillColor=none;align=left;verticalAlign=top;spacingLeft=4;spacingRight=4;overflow=hidden;rotatable=0;points=[[0,0.5],[1,0.5]];portConstraint=eastwest;whiteSpace=wrap;html=1;" parent="l1Z2_5R1PRk5aAiY4Urt-45" vertex="1">
          <mxGeometry y="34" width="280" height="26" as="geometry" />
        </mxCell>
        <mxCell id="l1Z2_5R1PRk5aAiY4Urt-56" value="Furnace" style="swimlane;fontStyle=1;align=center;verticalAlign=top;childLayout=stackLayout;horizontal=1;startSize=26;horizontalStack=0;resizeParent=1;resizeParentMax=0;resizeLast=0;collapsible=1;marginBottom=0;whiteSpace=wrap;html=1;" parent="WIyWlLk6GJQsqaUBKTNV-1" vertex="1">
          <mxGeometry x="1880" y="2190" width="280" height="60" as="geometry" />
        </mxCell>
        <mxCell id="l1Z2_5R1PRk5aAiY4Urt-64" value="" style="line;strokeWidth=1;fillColor=none;align=left;verticalAlign=middle;spacingTop=-1;spacingLeft=3;spacingRight=3;rotatable=0;labelPosition=right;points=[];portConstraint=eastwest;strokeColor=inherit;" parent="l1Z2_5R1PRk5aAiY4Urt-56" vertex="1">
          <mxGeometry y="26" width="280" height="8" as="geometry" />
        </mxCell>
        <mxCell id="l1Z2_5R1PRk5aAiY4Urt-65" value="- Awake()" style="text;strokeColor=none;fillColor=none;align=left;verticalAlign=top;spacingLeft=4;spacingRight=4;overflow=hidden;rotatable=0;points=[[0,0.5],[1,0.5]];portConstraint=eastwest;whiteSpace=wrap;html=1;" parent="l1Z2_5R1PRk5aAiY4Urt-56" vertex="1">
          <mxGeometry y="34" width="280" height="26" as="geometry" />
        </mxCell>
        <mxCell id="l1Z2_5R1PRk5aAiY4Urt-78" value="Merchant" style="swimlane;fontStyle=1;align=center;verticalAlign=top;childLayout=stackLayout;horizontal=1;startSize=26;horizontalStack=0;resizeParent=1;resizeParentMax=0;resizeLast=0;collapsible=1;marginBottom=0;whiteSpace=wrap;html=1;" parent="WIyWlLk6GJQsqaUBKTNV-1" vertex="1">
          <mxGeometry x="2210" y="2190" width="280" height="60" as="geometry" />
        </mxCell>
        <mxCell id="l1Z2_5R1PRk5aAiY4Urt-86" value="" style="line;strokeWidth=1;fillColor=none;align=left;verticalAlign=middle;spacingTop=-1;spacingLeft=3;spacingRight=3;rotatable=0;labelPosition=right;points=[];portConstraint=eastwest;strokeColor=inherit;" parent="l1Z2_5R1PRk5aAiY4Urt-78" vertex="1">
          <mxGeometry y="26" width="280" height="8" as="geometry" />
        </mxCell>
        <mxCell id="l1Z2_5R1PRk5aAiY4Urt-87" value="- Awake()" style="text;strokeColor=none;fillColor=none;align=left;verticalAlign=top;spacingLeft=4;spacingRight=4;overflow=hidden;rotatable=0;points=[[0,0.5],[1,0.5]];portConstraint=eastwest;whiteSpace=wrap;html=1;" parent="l1Z2_5R1PRk5aAiY4Urt-78" vertex="1">
          <mxGeometry y="34" width="280" height="26" as="geometry" />
        </mxCell>
        <mxCell id="l1Z2_5R1PRk5aAiY4Urt-89" value="Witch" style="swimlane;fontStyle=1;align=center;verticalAlign=top;childLayout=stackLayout;horizontal=1;startSize=26;horizontalStack=0;resizeParent=1;resizeParentMax=0;resizeLast=0;collapsible=1;marginBottom=0;whiteSpace=wrap;html=1;" parent="WIyWlLk6GJQsqaUBKTNV-1" vertex="1">
          <mxGeometry x="2300" y="1862" width="280" height="60" as="geometry" />
        </mxCell>
        <mxCell id="l1Z2_5R1PRk5aAiY4Urt-97" value="" style="line;strokeWidth=1;fillColor=none;align=left;verticalAlign=middle;spacingTop=-1;spacingLeft=3;spacingRight=3;rotatable=0;labelPosition=right;points=[];portConstraint=eastwest;strokeColor=inherit;" parent="l1Z2_5R1PRk5aAiY4Urt-89" vertex="1">
          <mxGeometry y="26" width="280" height="8" as="geometry" />
        </mxCell>
        <mxCell id="l1Z2_5R1PRk5aAiY4Urt-125" value="- Awake()" style="text;strokeColor=none;fillColor=none;align=left;verticalAlign=top;spacingLeft=4;spacingRight=4;overflow=hidden;rotatable=0;points=[[0,0.5],[1,0.5]];portConstraint=eastwest;whiteSpace=wrap;html=1;" parent="l1Z2_5R1PRk5aAiY4Urt-89" vertex="1">
          <mxGeometry y="34" width="280" height="26" as="geometry" />
        </mxCell>
        <mxCell id="l1Z2_5R1PRk5aAiY4Urt-100" value="InteractableAbstractClassLvl2" style="swimlane;fontStyle=1;align=center;verticalAlign=top;childLayout=stackLayout;horizontal=1;startSize=26;horizontalStack=0;resizeParent=1;resizeParentMax=0;resizeLast=0;collapsible=1;marginBottom=0;whiteSpace=wrap;html=1;" parent="WIyWlLk6GJQsqaUBKTNV-1" vertex="1">
          <mxGeometry x="1918.5" y="1862" width="280" height="164" as="geometry" />
        </mxCell>
        <mxCell id="l1Z2_5R1PRk5aAiY4Urt-103" value="+ inventory: GameObject&amp;nbsp;" style="text;strokeColor=none;fillColor=none;align=left;verticalAlign=top;spacingLeft=4;spacingRight=4;overflow=hidden;rotatable=0;points=[[0,0.5],[1,0.5]];portConstraint=eastwest;whiteSpace=wrap;html=1;" parent="l1Z2_5R1PRk5aAiY4Urt-100" vertex="1">
          <mxGeometry y="26" width="280" height="26" as="geometry" />
        </mxCell>
        <mxCell id="l1Z2_5R1PRk5aAiY4Urt-105" value="+ slot1: InventorySlot&amp;nbsp;" style="text;strokeColor=none;fillColor=none;align=left;verticalAlign=top;spacingLeft=4;spacingRight=4;overflow=hidden;rotatable=0;points=[[0,0.5],[1,0.5]];portConstraint=eastwest;whiteSpace=wrap;html=1;" parent="l1Z2_5R1PRk5aAiY4Urt-100" vertex="1">
          <mxGeometry y="52" width="280" height="26" as="geometry" />
        </mxCell>
        <mxCell id="l1Z2_5R1PRk5aAiY4Urt-106" value="+ slot2: InventorySlot&amp;nbsp;" style="text;strokeColor=none;fillColor=none;align=left;verticalAlign=top;spacingLeft=4;spacingRight=4;overflow=hidden;rotatable=0;points=[[0,0.5],[1,0.5]];portConstraint=eastwest;whiteSpace=wrap;html=1;" parent="l1Z2_5R1PRk5aAiY4Urt-100" vertex="1">
          <mxGeometry y="78" width="280" height="26" as="geometry" />
        </mxCell>
        <mxCell id="l1Z2_5R1PRk5aAiY4Urt-107" value="+ slot3: InventorySlot&amp;nbsp;" style="text;strokeColor=none;fillColor=none;align=left;verticalAlign=top;spacingLeft=4;spacingRight=4;overflow=hidden;rotatable=0;points=[[0,0.5],[1,0.5]];portConstraint=eastwest;whiteSpace=wrap;html=1;" parent="l1Z2_5R1PRk5aAiY4Urt-100" vertex="1">
          <mxGeometry y="104" width="280" height="26" as="geometry" />
        </mxCell>
        <mxCell id="l1Z2_5R1PRk5aAiY4Urt-108" value="" style="line;strokeWidth=1;fillColor=none;align=left;verticalAlign=middle;spacingTop=-1;spacingLeft=3;spacingRight=3;rotatable=0;labelPosition=right;points=[];portConstraint=eastwest;strokeColor=inherit;" parent="l1Z2_5R1PRk5aAiY4Urt-100" vertex="1">
          <mxGeometry y="130" width="280" height="8" as="geometry" />
        </mxCell>
        <mxCell id="l1Z2_5R1PRk5aAiY4Urt-126" value="+ Interact(interactor Interactor): bool" style="text;strokeColor=none;fillColor=none;align=left;verticalAlign=top;spacingLeft=4;spacingRight=4;overflow=hidden;rotatable=0;points=[[0,0.5],[1,0.5]];portConstraint=eastwest;whiteSpace=wrap;html=1;" parent="l1Z2_5R1PRk5aAiY4Urt-100" vertex="1">
          <mxGeometry y="138" width="280" height="26" as="geometry" />
        </mxCell>
        <mxCell id="l1Z2_5R1PRk5aAiY4Urt-112" value="InteractableAbstractClassLvl1" style="swimlane;fontStyle=1;align=center;verticalAlign=top;childLayout=stackLayout;horizontal=1;startSize=26;horizontalStack=0;resizeParent=1;resizeParentMax=0;resizeLast=0;collapsible=1;marginBottom=0;whiteSpace=wrap;html=1;" parent="WIyWlLk6GJQsqaUBKTNV-1" vertex="1">
          <mxGeometry x="2109" y="1630" width="280" height="138" as="geometry" />
        </mxCell>
        <mxCell id="l1Z2_5R1PRk5aAiY4Urt-113" value="- prompt: string&amp;nbsp;" style="text;strokeColor=none;fillColor=none;align=left;verticalAlign=top;spacingLeft=4;spacingRight=4;overflow=hidden;rotatable=0;points=[[0,0.5],[1,0.5]];portConstraint=eastwest;whiteSpace=wrap;html=1;" parent="l1Z2_5R1PRk5aAiY4Urt-112" vertex="1">
          <mxGeometry y="26" width="280" height="26" as="geometry" />
        </mxCell>
        <mxCell id="l1Z2_5R1PRk5aAiY4Urt-114" value="+ menu: GameObject&amp;nbsp;" style="text;strokeColor=none;fillColor=none;align=left;verticalAlign=top;spacingLeft=4;spacingRight=4;overflow=hidden;rotatable=0;points=[[0,0.5],[1,0.5]];portConstraint=eastwest;whiteSpace=wrap;html=1;" parent="l1Z2_5R1PRk5aAiY4Urt-112" vertex="1">
          <mxGeometry y="52" width="280" height="26" as="geometry" />
        </mxCell>
        <mxCell id="l1Z2_5R1PRk5aAiY4Urt-115" value="+ menuEnabled: bool&amp;nbsp;" style="text;strokeColor=none;fillColor=none;align=left;verticalAlign=top;spacingLeft=4;spacingRight=4;overflow=hidden;rotatable=0;points=[[0,0.5],[1,0.5]];portConstraint=eastwest;whiteSpace=wrap;html=1;" parent="l1Z2_5R1PRk5aAiY4Urt-112" vertex="1">
          <mxGeometry y="78" width="280" height="26" as="geometry" />
        </mxCell>
        <mxCell id="l1Z2_5R1PRk5aAiY4Urt-116" value="" style="line;strokeWidth=1;fillColor=none;align=left;verticalAlign=middle;spacingTop=-1;spacingLeft=3;spacingRight=3;rotatable=0;labelPosition=right;points=[];portConstraint=eastwest;strokeColor=inherit;" parent="l1Z2_5R1PRk5aAiY4Urt-112" vertex="1">
          <mxGeometry y="104" width="280" height="8" as="geometry" />
        </mxCell>
        <mxCell id="l1Z2_5R1PRk5aAiY4Urt-118" value="+ Interact(interactor Interactor): bool" style="text;strokeColor=none;fillColor=none;align=left;verticalAlign=top;spacingLeft=4;spacingRight=4;overflow=hidden;rotatable=0;points=[[0,0.5],[1,0.5]];portConstraint=eastwest;whiteSpace=wrap;html=1;" parent="l1Z2_5R1PRk5aAiY4Urt-112" vertex="1">
          <mxGeometry y="112" width="280" height="26" as="geometry" />
        </mxCell>
        <mxCell id="l1Z2_5R1PRk5aAiY4Urt-119" value="" style="endArrow=block;dashed=1;endFill=0;endSize=12;html=1;rounded=0;entryX=0.5;entryY=0;entryDx=0;entryDy=0;" parent="WIyWlLk6GJQsqaUBKTNV-1" source="l1Z2_5R1PRk5aAiY4Urt-33" target="l1Z2_5R1PRk5aAiY4Urt-112" edge="1">
          <mxGeometry width="160" relative="1" as="geometry">
            <mxPoint x="2160" y="1710" as="sourcePoint" />
            <mxPoint x="2320" y="1710" as="targetPoint" />
          </mxGeometry>
        </mxCell>
        <mxCell id="l1Z2_5R1PRk5aAiY4Urt-120" value="Extends" style="endArrow=block;endSize=16;endFill=0;html=1;rounded=0;" parent="WIyWlLk6GJQsqaUBKTNV-1" source="l1Z2_5R1PRk5aAiY4Urt-112" target="l1Z2_5R1PRk5aAiY4Urt-100" edge="1">
          <mxGeometry width="160" relative="1" as="geometry">
            <mxPoint x="2530" y="1610" as="sourcePoint" />
            <mxPoint x="2570" y="1754" as="targetPoint" />
          </mxGeometry>
        </mxCell>
        <mxCell id="l1Z2_5R1PRk5aAiY4Urt-121" value="Extends" style="endArrow=block;endSize=16;endFill=0;html=1;rounded=0;" parent="WIyWlLk6GJQsqaUBKTNV-1" source="l1Z2_5R1PRk5aAiY4Urt-112" target="l1Z2_5R1PRk5aAiY4Urt-89" edge="1">
          <mxGeometry width="160" relative="1" as="geometry">
            <mxPoint x="2195" y="1804" as="sourcePoint" />
            <mxPoint x="2142" y="1872" as="targetPoint" />
          </mxGeometry>
        </mxCell>
        <mxCell id="l1Z2_5R1PRk5aAiY4Urt-122" value="Extends" style="endArrow=block;endSize=16;endFill=0;html=1;rounded=0;entryX=0.815;entryY=-0.012;entryDx=0;entryDy=0;entryPerimeter=0;" parent="WIyWlLk6GJQsqaUBKTNV-1" source="l1Z2_5R1PRk5aAiY4Urt-100" target="l1Z2_5R1PRk5aAiY4Urt-45" edge="1">
          <mxGeometry width="160" relative="1" as="geometry">
            <mxPoint x="2192" y="1804" as="sourcePoint" />
            <mxPoint x="2136" y="1872" as="targetPoint" />
          </mxGeometry>
        </mxCell>
        <mxCell id="l1Z2_5R1PRk5aAiY4Urt-123" value="Extends" style="endArrow=block;endSize=16;endFill=0;html=1;rounded=0;entryX=0.345;entryY=-0.012;entryDx=0;entryDy=0;entryPerimeter=0;" parent="WIyWlLk6GJQsqaUBKTNV-1" source="l1Z2_5R1PRk5aAiY4Urt-100" target="l1Z2_5R1PRk5aAiY4Urt-56" edge="1">
          <mxGeometry width="160" relative="1" as="geometry">
            <mxPoint x="1977" y="2036" as="sourcePoint" />
            <mxPoint x="1798" y="2197" as="targetPoint" />
          </mxGeometry>
        </mxCell>
        <mxCell id="l1Z2_5R1PRk5aAiY4Urt-124" value="Extends" style="endArrow=block;endSize=16;endFill=0;html=1;rounded=0;entryX=0.179;entryY=0;entryDx=0;entryDy=0;entryPerimeter=0;" parent="WIyWlLk6GJQsqaUBKTNV-1" source="l1Z2_5R1PRk5aAiY4Urt-100" target="l1Z2_5R1PRk5aAiY4Urt-78" edge="1">
          <mxGeometry width="160" relative="1" as="geometry">
            <mxPoint x="1987" y="2046" as="sourcePoint" />
            <mxPoint x="1808" y="2207" as="targetPoint" />
          </mxGeometry>
        </mxCell>
        <mxCell id="l1Z2_5R1PRk5aAiY4Urt-127" value="Entity" style="swimlane;fontStyle=1;align=center;verticalAlign=top;childLayout=stackLayout;horizontal=1;startSize=26;horizontalStack=0;resizeParent=1;resizeParentMax=0;resizeLast=0;collapsible=1;marginBottom=0;whiteSpace=wrap;html=1;" parent="WIyWlLk6GJQsqaUBKTNV-1" vertex="1">
          <mxGeometry x="3770" y="1280" width="280" height="138" as="geometry" />
        </mxCell>
        <mxCell id="l1Z2_5R1PRk5aAiY4Urt-128" value="+ hp: float" style="text;strokeColor=none;fillColor=none;align=left;verticalAlign=top;spacingLeft=4;spacingRight=4;overflow=hidden;rotatable=0;points=[[0,0.5],[1,0.5]];portConstraint=eastwest;whiteSpace=wrap;html=1;" parent="l1Z2_5R1PRk5aAiY4Urt-127" vertex="1">
          <mxGeometry y="26" width="280" height="26" as="geometry" />
        </mxCell>
        <mxCell id="l1Z2_5R1PRk5aAiY4Urt-134" value="+ player: GameObject" style="text;strokeColor=none;fillColor=none;align=left;verticalAlign=top;spacingLeft=4;spacingRight=4;overflow=hidden;rotatable=0;points=[[0,0.5],[1,0.5]];portConstraint=eastwest;whiteSpace=wrap;html=1;" parent="l1Z2_5R1PRk5aAiY4Urt-127" vertex="1">
          <mxGeometry y="52" width="280" height="26" as="geometry" />
        </mxCell>
        <mxCell id="l1Z2_5R1PRk5aAiY4Urt-145" value="+ defaultItemToBeDropped: GameObject" style="text;strokeColor=none;fillColor=none;align=left;verticalAlign=top;spacingLeft=4;spacingRight=4;overflow=hidden;rotatable=0;points=[[0,0.5],[1,0.5]];portConstraint=eastwest;whiteSpace=wrap;html=1;" parent="l1Z2_5R1PRk5aAiY4Urt-127" vertex="1">
          <mxGeometry y="78" width="280" height="26" as="geometry" />
        </mxCell>
        <mxCell id="l1Z2_5R1PRk5aAiY4Urt-144" value="+ quantity: GameObject" style="text;strokeColor=none;fillColor=none;align=left;verticalAlign=top;spacingLeft=4;spacingRight=4;overflow=hidden;rotatable=0;points=[[0,0.5],[1,0.5]];portConstraint=eastwest;whiteSpace=wrap;html=1;" parent="l1Z2_5R1PRk5aAiY4Urt-127" vertex="1">
          <mxGeometry y="104" width="280" height="26" as="geometry" />
        </mxCell>
        <mxCell id="l1Z2_5R1PRk5aAiY4Urt-135" value="" style="line;strokeWidth=1;fillColor=none;align=left;verticalAlign=middle;spacingTop=-1;spacingLeft=3;spacingRight=3;rotatable=0;labelPosition=right;points=[];portConstraint=eastwest;strokeColor=inherit;" parent="l1Z2_5R1PRk5aAiY4Urt-127" vertex="1">
          <mxGeometry y="130" width="280" height="8" as="geometry" />
        </mxCell>
        <mxCell id="l1Z2_5R1PRk5aAiY4Urt-139" value="EnvironmentElement" style="swimlane;fontStyle=1;align=center;verticalAlign=top;childLayout=stackLayout;horizontal=1;startSize=26;horizontalStack=0;resizeParent=1;resizeParentMax=0;resizeLast=0;collapsible=1;marginBottom=0;whiteSpace=wrap;html=1;" parent="WIyWlLk6GJQsqaUBKTNV-1" vertex="1">
          <mxGeometry x="3960" y="1600" width="280" height="138" as="geometry" />
        </mxCell>
        <mxCell id="l1Z2_5R1PRk5aAiY4Urt-141" value="+ type: string" style="text;strokeColor=none;fillColor=none;align=left;verticalAlign=top;spacingLeft=4;spacingRight=4;overflow=hidden;rotatable=0;points=[[0,0.5],[1,0.5]];portConstraint=eastwest;whiteSpace=wrap;html=1;" parent="l1Z2_5R1PRk5aAiY4Urt-139" vertex="1">
          <mxGeometry y="26" width="280" height="26" as="geometry" />
        </mxCell>
        <mxCell id="l1Z2_5R1PRk5aAiY4Urt-147" value="" style="line;strokeWidth=1;fillColor=none;align=left;verticalAlign=middle;spacingTop=-1;spacingLeft=3;spacingRight=3;rotatable=0;labelPosition=right;points=[];portConstraint=eastwest;strokeColor=inherit;" parent="l1Z2_5R1PRk5aAiY4Urt-139" vertex="1">
          <mxGeometry y="52" width="280" height="8" as="geometry" />
        </mxCell>
        <mxCell id="l1Z2_5R1PRk5aAiY4Urt-148" value="+ Awake()" style="text;strokeColor=none;fillColor=none;align=left;verticalAlign=top;spacingLeft=4;spacingRight=4;overflow=hidden;rotatable=0;points=[[0,0.5],[1,0.5]];portConstraint=eastwest;whiteSpace=wrap;html=1;" parent="l1Z2_5R1PRk5aAiY4Urt-139" vertex="1">
          <mxGeometry y="60" width="280" height="26" as="geometry" />
        </mxCell>
        <mxCell id="l1Z2_5R1PRk5aAiY4Urt-149" value="+ TakeDamage(damageAmount: Integer)&lt;div&gt;&lt;br&gt;&lt;/div&gt;" style="text;strokeColor=none;fillColor=none;align=left;verticalAlign=top;spacingLeft=4;spacingRight=4;overflow=hidden;rotatable=0;points=[[0,0.5],[1,0.5]];portConstraint=eastwest;whiteSpace=wrap;html=1;" parent="l1Z2_5R1PRk5aAiY4Urt-139" vertex="1">
          <mxGeometry y="86" width="280" height="26" as="geometry" />
        </mxCell>
        <mxCell id="l1Z2_5R1PRk5aAiY4Urt-150" value="+ createAndAddItem()" style="text;strokeColor=none;fillColor=none;align=left;verticalAlign=top;spacingLeft=4;spacingRight=4;overflow=hidden;rotatable=0;points=[[0,0.5],[1,0.5]];portConstraint=eastwest;whiteSpace=wrap;html=1;" parent="l1Z2_5R1PRk5aAiY4Urt-139" vertex="1">
          <mxGeometry y="112" width="280" height="26" as="geometry" />
        </mxCell>
        <mxCell id="l1Z2_5R1PRk5aAiY4Urt-151" value="Extends" style="endArrow=block;endSize=16;endFill=0;html=1;rounded=0;" parent="WIyWlLk6GJQsqaUBKTNV-1" source="l1Z2_5R1PRk5aAiY4Urt-127" target="l1Z2_5R1PRk5aAiY4Urt-0" edge="1">
          <mxGeometry width="160" relative="1" as="geometry">
            <mxPoint x="3554" y="1774" as="sourcePoint" />
            <mxPoint x="3280" y="2007" as="targetPoint" />
          </mxGeometry>
        </mxCell>
        <mxCell id="l1Z2_5R1PRk5aAiY4Urt-152" value="Extends" style="endArrow=block;endSize=16;endFill=0;html=1;rounded=0;entryX=0.25;entryY=0;entryDx=0;entryDy=0;" parent="WIyWlLk6GJQsqaUBKTNV-1" source="l1Z2_5R1PRk5aAiY4Urt-127" target="l1Z2_5R1PRk5aAiY4Urt-139" edge="1">
          <mxGeometry width="160" relative="1" as="geometry">
            <mxPoint x="3888" y="1428" as="sourcePoint" />
            <mxPoint x="3724" y="1610" as="targetPoint" />
          </mxGeometry>
        </mxCell>
        <mxCell id="l1Z2_5R1PRk5aAiY4Urt-153" value="PlayerMovement" style="swimlane;fontStyle=1;align=center;verticalAlign=top;childLayout=stackLayout;horizontal=1;startSize=26;horizontalStack=0;resizeParent=1;resizeParentMax=0;resizeLast=0;collapsible=1;marginBottom=0;whiteSpace=wrap;html=1;" parent="WIyWlLk6GJQsqaUBKTNV-1" vertex="1">
          <mxGeometry x="90" y="130" width="1020" height="1550" as="geometry" />
        </mxCell>
        <mxCell id="l1Z2_5R1PRk5aAiY4Urt-154" value="+ attackPoint: GameObject" style="text;strokeColor=none;fillColor=none;align=left;verticalAlign=top;spacingLeft=4;spacingRight=4;overflow=hidden;rotatable=0;points=[[0,0.5],[1,0.5]];portConstraint=eastwest;whiteSpace=wrap;html=1;" parent="l1Z2_5R1PRk5aAiY4Urt-153" vertex="1">
          <mxGeometry y="26" width="1020" height="24" as="geometry" />
        </mxCell>
        <mxCell id="l1Z2_5R1PRk5aAiY4Urt-155" value="+ toolManager: GameObject" style="text;strokeColor=none;fillColor=none;align=left;verticalAlign=top;spacingLeft=4;spacingRight=4;overflow=hidden;rotatable=0;points=[[0,0.5],[1,0.5]];portConstraint=eastwest;whiteSpace=wrap;html=1;" parent="l1Z2_5R1PRk5aAiY4Urt-153" vertex="1">
          <mxGeometry y="50" width="1020" height="24" as="geometry" />
        </mxCell>
        <mxCell id="l1Z2_5R1PRk5aAiY4Urt-156" value="+ dealDamagePoint: DealDamagePoint" style="text;strokeColor=none;fillColor=none;align=left;verticalAlign=top;spacingLeft=4;spacingRight=4;overflow=hidden;rotatable=0;points=[[0,0.5],[1,0.5]];portConstraint=eastwest;whiteSpace=wrap;html=1;" parent="l1Z2_5R1PRk5aAiY4Urt-153" vertex="1">
          <mxGeometry y="74" width="1020" height="24" as="geometry" />
        </mxCell>
        <mxCell id="l1Z2_5R1PRk5aAiY4Urt-157" value="+ moveSpeed: float" style="text;strokeColor=none;fillColor=none;align=left;verticalAlign=top;spacingLeft=4;spacingRight=4;overflow=hidden;rotatable=0;points=[[0,0.5],[1,0.5]];portConstraint=eastwest;whiteSpace=wrap;html=1;" parent="l1Z2_5R1PRk5aAiY4Urt-153" vertex="1">
          <mxGeometry y="98" width="1020" height="24" as="geometry" />
        </mxCell>
        <mxCell id="l1Z2_5R1PRk5aAiY4Urt-158" value="+ walkSpeed: float" style="text;strokeColor=none;fillColor=none;align=left;verticalAlign=top;spacingLeft=4;spacingRight=4;overflow=hidden;rotatable=0;points=[[0,0.5],[1,0.5]];portConstraint=eastwest;whiteSpace=wrap;html=1;" parent="l1Z2_5R1PRk5aAiY4Urt-153" vertex="1">
          <mxGeometry y="122" width="1020" height="24" as="geometry" />
        </mxCell>
        <mxCell id="l1Z2_5R1PRk5aAiY4Urt-159" value="+ runSpeed: GameObject" style="text;strokeColor=none;fillColor=none;align=left;verticalAlign=top;spacingLeft=4;spacingRight=4;overflow=hidden;rotatable=0;points=[[0,0.5],[1,0.5]];portConstraint=eastwest;whiteSpace=wrap;html=1;" parent="l1Z2_5R1PRk5aAiY4Urt-153" vertex="1">
          <mxGeometry y="146" width="1020" height="24" as="geometry" />
        </mxCell>
        <mxCell id="l1Z2_5R1PRk5aAiY4Urt-160" value="+ moveDirection: Vector3" style="text;strokeColor=none;fillColor=none;align=left;verticalAlign=top;spacingLeft=4;spacingRight=4;overflow=hidden;rotatable=0;points=[[0,0.5],[1,0.5]];portConstraint=eastwest;whiteSpace=wrap;html=1;" parent="l1Z2_5R1PRk5aAiY4Urt-153" vertex="1">
          <mxGeometry y="170" width="1020" height="24" as="geometry" />
        </mxCell>
        <mxCell id="l1Z2_5R1PRk5aAiY4Urt-161" value="+ velocity: Vector3" style="text;strokeColor=none;fillColor=none;align=left;verticalAlign=top;spacingLeft=4;spacingRight=4;overflow=hidden;rotatable=0;points=[[0,0.5],[1,0.5]];portConstraint=eastwest;whiteSpace=wrap;html=1;" parent="l1Z2_5R1PRk5aAiY4Urt-153" vertex="1">
          <mxGeometry y="194" width="1020" height="24" as="geometry" />
        </mxCell>
        <mxCell id="l1Z2_5R1PRk5aAiY4Urt-162" value="+ isGrounded: bool" style="text;strokeColor=none;fillColor=none;align=left;verticalAlign=top;spacingLeft=4;spacingRight=4;overflow=hidden;rotatable=0;points=[[0,0.5],[1,0.5]];portConstraint=eastwest;whiteSpace=wrap;html=1;" parent="l1Z2_5R1PRk5aAiY4Urt-153" vertex="1">
          <mxGeometry y="218" width="1020" height="24" as="geometry" />
        </mxCell>
        <mxCell id="l1Z2_5R1PRk5aAiY4Urt-163" value="+ groundCheckDistance: float" style="text;strokeColor=none;fillColor=none;align=left;verticalAlign=top;spacingLeft=4;spacingRight=4;overflow=hidden;rotatable=0;points=[[0,0.5],[1,0.5]];portConstraint=eastwest;whiteSpace=wrap;html=1;" parent="l1Z2_5R1PRk5aAiY4Urt-153" vertex="1">
          <mxGeometry y="242" width="1020" height="24" as="geometry" />
        </mxCell>
        <mxCell id="l1Z2_5R1PRk5aAiY4Urt-164" value="+ groundMask: LayerMask" style="text;strokeColor=none;fillColor=none;align=left;verticalAlign=top;spacingLeft=4;spacingRight=4;overflow=hidden;rotatable=0;points=[[0,0.5],[1,0.5]];portConstraint=eastwest;whiteSpace=wrap;html=1;" parent="l1Z2_5R1PRk5aAiY4Urt-153" vertex="1">
          <mxGeometry y="266" width="1020" height="24" as="geometry" />
        </mxCell>
        <mxCell id="l1Z2_5R1PRk5aAiY4Urt-165" value="+ gravity: float" style="text;strokeColor=none;fillColor=none;align=left;verticalAlign=top;spacingLeft=4;spacingRight=4;overflow=hidden;rotatable=0;points=[[0,0.5],[1,0.5]];portConstraint=eastwest;whiteSpace=wrap;html=1;" parent="l1Z2_5R1PRk5aAiY4Urt-153" vertex="1">
          <mxGeometry y="290" width="1020" height="24" as="geometry" />
        </mxCell>
        <mxCell id="l1Z2_5R1PRk5aAiY4Urt-166" value="+ jumpHeight: float" style="text;strokeColor=none;fillColor=none;align=left;verticalAlign=top;spacingLeft=4;spacingRight=4;overflow=hidden;rotatable=0;points=[[0,0.5],[1,0.5]];portConstraint=eastwest;whiteSpace=wrap;html=1;" parent="l1Z2_5R1PRk5aAiY4Urt-153" vertex="1">
          <mxGeometry y="314" width="1020" height="24" as="geometry" />
        </mxCell>
        <mxCell id="l1Z2_5R1PRk5aAiY4Urt-167" value="+ controller: CharacterController" style="text;strokeColor=none;fillColor=none;align=left;verticalAlign=top;spacingLeft=4;spacingRight=4;overflow=hidden;rotatable=0;points=[[0,0.5],[1,0.5]];portConstraint=eastwest;whiteSpace=wrap;html=1;" parent="l1Z2_5R1PRk5aAiY4Urt-153" vertex="1">
          <mxGeometry y="338" width="1020" height="24" as="geometry" />
        </mxCell>
        <mxCell id="l1Z2_5R1PRk5aAiY4Urt-168" value="+ anim: Animator" style="text;strokeColor=none;fillColor=none;align=left;verticalAlign=top;spacingLeft=4;spacingRight=4;overflow=hidden;rotatable=0;points=[[0,0.5],[1,0.5]];portConstraint=eastwest;whiteSpace=wrap;html=1;" parent="l1Z2_5R1PRk5aAiY4Urt-153" vertex="1">
          <mxGeometry y="362" width="1020" height="24" as="geometry" />
        </mxCell>
        <mxCell id="l1Z2_5R1PRk5aAiY4Urt-169" value="+ cooldown: float" style="text;strokeColor=none;fillColor=none;align=left;verticalAlign=top;spacingLeft=4;spacingRight=4;overflow=hidden;rotatable=0;points=[[0,0.5],[1,0.5]];portConstraint=eastwest;whiteSpace=wrap;html=1;" parent="l1Z2_5R1PRk5aAiY4Urt-153" vertex="1">
          <mxGeometry y="386" width="1020" height="24" as="geometry" />
        </mxCell>
        <mxCell id="l1Z2_5R1PRk5aAiY4Urt-170" value="+ lastAttack: float" style="text;strokeColor=none;fillColor=none;align=left;verticalAlign=top;spacingLeft=4;spacingRight=4;overflow=hidden;rotatable=0;points=[[0,0.5],[1,0.5]];portConstraint=eastwest;whiteSpace=wrap;html=1;" parent="l1Z2_5R1PRk5aAiY4Urt-153" vertex="1">
          <mxGeometry y="410" width="1020" height="24" as="geometry" />
        </mxCell>
        <mxCell id="l1Z2_5R1PRk5aAiY4Urt-171" value="+ player: GameObject" style="text;strokeColor=none;fillColor=none;align=left;verticalAlign=top;spacingLeft=4;spacingRight=4;overflow=hidden;rotatable=0;points=[[0,0.5],[1,0.5]];portConstraint=eastwest;whiteSpace=wrap;html=1;" parent="l1Z2_5R1PRk5aAiY4Urt-153" vertex="1">
          <mxGeometry y="434" width="1020" height="24" as="geometry" />
        </mxCell>
        <mxCell id="l1Z2_5R1PRk5aAiY4Urt-172" value="+ backShield: GameObject" style="text;strokeColor=none;fillColor=none;align=left;verticalAlign=top;spacingLeft=4;spacingRight=4;overflow=hidden;rotatable=0;points=[[0,0.5],[1,0.5]];portConstraint=eastwest;whiteSpace=wrap;html=1;" parent="l1Z2_5R1PRk5aAiY4Urt-153" vertex="1">
          <mxGeometry y="458" width="1020" height="24" as="geometry" />
        </mxCell>
        <mxCell id="l1Z2_5R1PRk5aAiY4Urt-173" value="+ handShield: GameObject" style="text;strokeColor=none;fillColor=none;align=left;verticalAlign=top;spacingLeft=4;spacingRight=4;overflow=hidden;rotatable=0;points=[[0,0.5],[1,0.5]];portConstraint=eastwest;whiteSpace=wrap;html=1;" parent="l1Z2_5R1PRk5aAiY4Urt-153" vertex="1">
          <mxGeometry y="482" width="1020" height="24" as="geometry" />
        </mxCell>
        <mxCell id="l1Z2_5R1PRk5aAiY4Urt-174" value="+ maxHealthPoints: float" style="text;strokeColor=none;fillColor=none;align=left;verticalAlign=top;spacingLeft=4;spacingRight=4;overflow=hidden;rotatable=0;points=[[0,0.5],[1,0.5]];portConstraint=eastwest;whiteSpace=wrap;html=1;" parent="l1Z2_5R1PRk5aAiY4Urt-153" vertex="1">
          <mxGeometry y="506" width="1020" height="24" as="geometry" />
        </mxCell>
        <mxCell id="l1Z2_5R1PRk5aAiY4Urt-175" value="+ maxStaminaPoints: float" style="text;strokeColor=none;fillColor=none;align=left;verticalAlign=top;spacingLeft=4;spacingRight=4;overflow=hidden;rotatable=0;points=[[0,0.5],[1,0.5]];portConstraint=eastwest;whiteSpace=wrap;html=1;" parent="l1Z2_5R1PRk5aAiY4Urt-153" vertex="1">
          <mxGeometry y="530" width="1020" height="24" as="geometry" />
        </mxCell>
        <mxCell id="l1Z2_5R1PRk5aAiY4Urt-176" value="+ maxXPPoints: float" style="text;strokeColor=none;fillColor=none;align=left;verticalAlign=top;spacingLeft=4;spacingRight=4;overflow=hidden;rotatable=0;points=[[0,0.5],[1,0.5]];portConstraint=eastwest;whiteSpace=wrap;html=1;" parent="l1Z2_5R1PRk5aAiY4Urt-153" vertex="1">
          <mxGeometry y="554" width="1020" height="24" as="geometry" />
        </mxCell>
        <mxCell id="l1Z2_5R1PRk5aAiY4Urt-177" value="+ defense: float" style="text;strokeColor=none;fillColor=none;align=left;verticalAlign=top;spacingLeft=4;spacingRight=4;overflow=hidden;rotatable=0;points=[[0,0.5],[1,0.5]];portConstraint=eastwest;whiteSpace=wrap;html=1;" parent="l1Z2_5R1PRk5aAiY4Urt-153" vertex="1">
          <mxGeometry y="578" width="1020" height="24" as="geometry" />
        </mxCell>
        <mxCell id="l1Z2_5R1PRk5aAiY4Urt-178" value="+ strength: float" style="text;strokeColor=none;fillColor=none;align=left;verticalAlign=top;spacingLeft=4;spacingRight=4;overflow=hidden;rotatable=0;points=[[0,0.5],[1,0.5]];portConstraint=eastwest;whiteSpace=wrap;html=1;" parent="l1Z2_5R1PRk5aAiY4Urt-153" vertex="1">
          <mxGeometry y="602" width="1020" height="24" as="geometry" />
        </mxCell>
        <mxCell id="l1Z2_5R1PRk5aAiY4Urt-179" value="+ healthPoints: float" style="text;strokeColor=none;fillColor=none;align=left;verticalAlign=top;spacingLeft=4;spacingRight=4;overflow=hidden;rotatable=0;points=[[0,0.5],[1,0.5]];portConstraint=eastwest;whiteSpace=wrap;html=1;" parent="l1Z2_5R1PRk5aAiY4Urt-153" vertex="1">
          <mxGeometry y="626" width="1020" height="24" as="geometry" />
        </mxCell>
        <mxCell id="l1Z2_5R1PRk5aAiY4Urt-180" value="+ staminaPoints: float" style="text;strokeColor=none;fillColor=none;align=left;verticalAlign=top;spacingLeft=4;spacingRight=4;overflow=hidden;rotatable=0;points=[[0,0.5],[1,0.5]];portConstraint=eastwest;whiteSpace=wrap;html=1;" parent="l1Z2_5R1PRk5aAiY4Urt-153" vertex="1">
          <mxGeometry y="650" width="1020" height="24" as="geometry" />
        </mxCell>
        <mxCell id="l1Z2_5R1PRk5aAiY4Urt-181" value="+ xpPoints: float" style="text;strokeColor=none;fillColor=none;align=left;verticalAlign=top;spacingLeft=4;spacingRight=4;overflow=hidden;rotatable=0;points=[[0,0.5],[1,0.5]];portConstraint=eastwest;whiteSpace=wrap;html=1;" parent="l1Z2_5R1PRk5aAiY4Urt-153" vertex="1">
          <mxGeometry y="674" width="1020" height="24" as="geometry" />
        </mxCell>
        <mxCell id="l1Z2_5R1PRk5aAiY4Urt-182" value="+ hp_text1: TMPro.TextMeshProUGUI" style="text;strokeColor=none;fillColor=none;align=left;verticalAlign=top;spacingLeft=4;spacingRight=4;overflow=hidden;rotatable=0;points=[[0,0.5],[1,0.5]];portConstraint=eastwest;whiteSpace=wrap;html=1;" parent="l1Z2_5R1PRk5aAiY4Urt-153" vertex="1">
          <mxGeometry y="698" width="1020" height="24" as="geometry" />
        </mxCell>
        <mxCell id="l1Z2_5R1PRk5aAiY4Urt-183" value="+ hp_text2: TMPro.TextMeshProUGUI" style="text;strokeColor=none;fillColor=none;align=left;verticalAlign=top;spacingLeft=4;spacingRight=4;overflow=hidden;rotatable=0;points=[[0,0.5],[1,0.5]];portConstraint=eastwest;whiteSpace=wrap;html=1;" parent="l1Z2_5R1PRk5aAiY4Urt-153" vertex="1">
          <mxGeometry y="722" width="1020" height="24" as="geometry" />
        </mxCell>
        <mxCell id="l1Z2_5R1PRk5aAiY4Urt-184" value="+ stamina_text1: TMPro.TextMeshProUGUI" style="text;strokeColor=none;fillColor=none;align=left;verticalAlign=top;spacingLeft=4;spacingRight=4;overflow=hidden;rotatable=0;points=[[0,0.5],[1,0.5]];portConstraint=eastwest;whiteSpace=wrap;html=1;" parent="l1Z2_5R1PRk5aAiY4Urt-153" vertex="1">
          <mxGeometry y="746" width="1020" height="24" as="geometry" />
        </mxCell>
        <mxCell id="l1Z2_5R1PRk5aAiY4Urt-185" value="+ stamina_text2: TMPro.TextMeshProUGUI" style="text;strokeColor=none;fillColor=none;align=left;verticalAlign=top;spacingLeft=4;spacingRight=4;overflow=hidden;rotatable=0;points=[[0,0.5],[1,0.5]];portConstraint=eastwest;whiteSpace=wrap;html=1;" parent="l1Z2_5R1PRk5aAiY4Urt-153" vertex="1">
          <mxGeometry y="770" width="1020" height="24" as="geometry" />
        </mxCell>
        <mxCell id="l1Z2_5R1PRk5aAiY4Urt-186" value="+ xp_text1: TMPro.TextMeshProUGUI" style="text;strokeColor=none;fillColor=none;align=left;verticalAlign=top;spacingLeft=4;spacingRight=4;overflow=hidden;rotatable=0;points=[[0,0.5],[1,0.5]];portConstraint=eastwest;whiteSpace=wrap;html=1;" parent="l1Z2_5R1PRk5aAiY4Urt-153" vertex="1">
          <mxGeometry y="794" width="1020" height="24" as="geometry" />
        </mxCell>
        <mxCell id="l1Z2_5R1PRk5aAiY4Urt-187" value="+ xp_text2: TMPro.TextMeshProUGUI" style="text;strokeColor=none;fillColor=none;align=left;verticalAlign=top;spacingLeft=4;spacingRight=4;overflow=hidden;rotatable=0;points=[[0,0.5],[1,0.5]];portConstraint=eastwest;whiteSpace=wrap;html=1;" parent="l1Z2_5R1PRk5aAiY4Urt-153" vertex="1">
          <mxGeometry y="818" width="1020" height="24" as="geometry" />
        </mxCell>
        <mxCell id="l1Z2_5R1PRk5aAiY4Urt-188" value="+ hp_bar: GameObject" style="text;strokeColor=none;fillColor=none;align=left;verticalAlign=top;spacingLeft=4;spacingRight=4;overflow=hidden;rotatable=0;points=[[0,0.5],[1,0.5]];portConstraint=eastwest;whiteSpace=wrap;html=1;" parent="l1Z2_5R1PRk5aAiY4Urt-153" vertex="1">
          <mxGeometry y="842" width="1020" height="24" as="geometry" />
        </mxCell>
        <mxCell id="l1Z2_5R1PRk5aAiY4Urt-189" value="+ stamina_bar: GameObject" style="text;strokeColor=none;fillColor=none;align=left;verticalAlign=top;spacingLeft=4;spacingRight=4;overflow=hidden;rotatable=0;points=[[0,0.5],[1,0.5]];portConstraint=eastwest;whiteSpace=wrap;html=1;" parent="l1Z2_5R1PRk5aAiY4Urt-153" vertex="1">
          <mxGeometry y="866" width="1020" height="24" as="geometry" />
        </mxCell>
        <mxCell id="l1Z2_5R1PRk5aAiY4Urt-190" value="+ xp_bar: GameObject" style="text;strokeColor=none;fillColor=none;align=left;verticalAlign=top;spacingLeft=4;spacingRight=4;overflow=hidden;rotatable=0;points=[[0,0.5],[1,0.5]];portConstraint=eastwest;whiteSpace=wrap;html=1;" parent="l1Z2_5R1PRk5aAiY4Urt-153" vertex="1">
          <mxGeometry y="890" width="1020" height="24" as="geometry" />
        </mxCell>
        <mxCell id="l1Z2_5R1PRk5aAiY4Urt-191" value="+ hasTool:bool" style="text;strokeColor=none;fillColor=none;align=left;verticalAlign=top;spacingLeft=4;spacingRight=4;overflow=hidden;rotatable=0;points=[[0,0.5],[1,0.5]];portConstraint=eastwest;whiteSpace=wrap;html=1;" parent="l1Z2_5R1PRk5aAiY4Urt-153" vertex="1">
          <mxGeometry y="914" width="1020" height="24" as="geometry" />
        </mxCell>
        <mxCell id="l1Z2_5R1PRk5aAiY4Urt-192" value="+ hasShield: bool" style="text;strokeColor=none;fillColor=none;align=left;verticalAlign=top;spacingLeft=4;spacingRight=4;overflow=hidden;rotatable=0;points=[[0,0.5],[1,0.5]];portConstraint=eastwest;whiteSpace=wrap;html=1;" parent="l1Z2_5R1PRk5aAiY4Urt-153" vertex="1">
          <mxGeometry y="938" width="1020" height="24" as="geometry" />
        </mxCell>
        <mxCell id="l1Z2_5R1PRk5aAiY4Urt-193" value="+ hasBow: bool" style="text;strokeColor=none;fillColor=none;align=left;verticalAlign=top;spacingLeft=4;spacingRight=4;overflow=hidden;rotatable=0;points=[[0,0.5],[1,0.5]];portConstraint=eastwest;whiteSpace=wrap;html=1;" parent="l1Z2_5R1PRk5aAiY4Urt-153" vertex="1">
          <mxGeometry y="962" width="1020" height="24" as="geometry" />
        </mxCell>
        <mxCell id="l1Z2_5R1PRk5aAiY4Urt-194" value="+ hasArrows: bool" style="text;strokeColor=none;fillColor=none;align=left;verticalAlign=top;spacingLeft=4;spacingRight=4;overflow=hidden;rotatable=0;points=[[0,0.5],[1,0.5]];portConstraint=eastwest;whiteSpace=wrap;html=1;" parent="l1Z2_5R1PRk5aAiY4Urt-153" vertex="1">
          <mxGeometry y="986" width="1020" height="24" as="geometry" />
        </mxCell>
        <mxCell id="l1Z2_5R1PRk5aAiY4Urt-195" value="+ moveForward: bool" style="text;strokeColor=none;fillColor=none;align=left;verticalAlign=top;spacingLeft=4;spacingRight=4;overflow=hidden;rotatable=0;points=[[0,0.5],[1,0.5]];portConstraint=eastwest;whiteSpace=wrap;html=1;" parent="l1Z2_5R1PRk5aAiY4Urt-153" vertex="1">
          <mxGeometry y="1010" width="1020" height="24" as="geometry" />
        </mxCell>
        <mxCell id="l1Z2_5R1PRk5aAiY4Urt-196" value="+ moveBackwards: bool" style="text;strokeColor=none;fillColor=none;align=left;verticalAlign=top;spacingLeft=4;spacingRight=4;overflow=hidden;rotatable=0;points=[[0,0.5],[1,0.5]];portConstraint=eastwest;whiteSpace=wrap;html=1;" parent="l1Z2_5R1PRk5aAiY4Urt-153" vertex="1">
          <mxGeometry y="1034" width="1020" height="24" as="geometry" />
        </mxCell>
        <mxCell id="l1Z2_5R1PRk5aAiY4Urt-197" value="+ shieldProtectionPoint: GameObject" style="text;strokeColor=none;fillColor=none;align=left;verticalAlign=top;spacingLeft=4;spacingRight=4;overflow=hidden;rotatable=0;points=[[0,0.5],[1,0.5]];portConstraint=eastwest;whiteSpace=wrap;html=1;" parent="l1Z2_5R1PRk5aAiY4Urt-153" vertex="1">
          <mxGeometry y="1058" width="1020" height="24" as="geometry" />
        </mxCell>
        <mxCell id="l1Z2_5R1PRk5aAiY4Urt-198" value="+ hasKey: bool" style="text;strokeColor=none;fillColor=none;align=left;verticalAlign=top;spacingLeft=4;spacingRight=4;overflow=hidden;rotatable=0;points=[[0,0.5],[1,0.5]];portConstraint=eastwest;whiteSpace=wrap;html=1;" parent="l1Z2_5R1PRk5aAiY4Urt-153" vertex="1">
          <mxGeometry y="1082" width="1020" height="24" as="geometry" />
        </mxCell>
        <mxCell id="l1Z2_5R1PRk5aAiY4Urt-199" value="+ backShield: GameObject" style="text;strokeColor=none;fillColor=none;align=left;verticalAlign=top;spacingLeft=4;spacingRight=4;overflow=hidden;rotatable=0;points=[[0,0.5],[1,0.5]];portConstraint=eastwest;whiteSpace=wrap;html=1;" parent="l1Z2_5R1PRk5aAiY4Urt-153" vertex="1">
          <mxGeometry y="1106" width="1020" height="24" as="geometry" />
        </mxCell>
        <mxCell id="l1Z2_5R1PRk5aAiY4Urt-200" value="+ controlsPanel: GameObject" style="text;strokeColor=none;fillColor=none;align=left;verticalAlign=top;spacingLeft=4;spacingRight=4;overflow=hidden;rotatable=0;points=[[0,0.5],[1,0.5]];portConstraint=eastwest;whiteSpace=wrap;html=1;" parent="l1Z2_5R1PRk5aAiY4Urt-153" vertex="1">
          <mxGeometry y="1130" width="1020" height="24" as="geometry" />
        </mxCell>
        <mxCell id="l1Z2_5R1PRk5aAiY4Urt-201" value="+ audioManager: AudioManager" style="text;strokeColor=none;fillColor=none;align=left;verticalAlign=top;spacingLeft=4;spacingRight=4;overflow=hidden;rotatable=0;points=[[0,0.5],[1,0.5]];portConstraint=eastwest;whiteSpace=wrap;html=1;" parent="l1Z2_5R1PRk5aAiY4Urt-153" vertex="1">
          <mxGeometry y="1154" width="1020" height="24" as="geometry" />
        </mxCell>
        <mxCell id="l1Z2_5R1PRk5aAiY4Urt-202" value="" style="line;strokeWidth=1;fillColor=none;align=left;verticalAlign=middle;spacingTop=-1;spacingLeft=3;spacingRight=3;rotatable=0;labelPosition=right;points=[];portConstraint=eastwest;strokeColor=inherit;" parent="l1Z2_5R1PRk5aAiY4Urt-153" vertex="1">
          <mxGeometry y="1178" width="1020" height="8" as="geometry" />
        </mxCell>
        <mxCell id="l1Z2_5R1PRk5aAiY4Urt-203" value="+ OnDrawGizmosSelected()&lt;span style=&quot;color: rgba(0, 0, 0, 0); font-family: monospace; font-size: 0px; text-wrap: nowrap;&quot;&gt;%3CmxGraphModel%3E%3Croot%3E%3CmxCell%20id%3D%220%22%2F%3E%3CmxCell%20id%3D%221%22%20parent%3D%220%22%2F%3E%3CmxCell%20id%3D%222%22%20value%3D%22%2B%20controlsPanel%3A%20GameObject%22%20style%3D%22text%3BstrokeColor%3Dnone%3BfillColor%3Dnone%3Balign%3Dleft%3BverticalAlign%3Dtop%3BspacingLeft%3D4%3BspacingRight%3D4%3Boverflow%3Dhidden%3Brotatable%3D0%3Bpoints%3D%5B%5B0%2C0.5%5D%2C%5B1%2C0.5%5D%5D%3BportConstraint%3Deastwest%3BwhiteSpace%3Dwrap%3Bhtml%3D1%3B%22%20vertex%3D%221%22%20parent%3D%221%22%3E%3CmxGeometry%20x%3D%2290%22%20y%3D%221220%22%20width%3D%22260%22%20height%3D%2224%22%20as%3D%22geometry%22%2F%3E%3C%2FmxCell%3E%3C%2Froot%3E%3C%2FmxGraphModel%3&lt;/span&gt;" style="text;strokeColor=none;fillColor=none;align=left;verticalAlign=top;spacingLeft=4;spacingRight=4;overflow=hidden;rotatable=0;points=[[0,0.5],[1,0.5]];portConstraint=eastwest;whiteSpace=wrap;html=1;" parent="l1Z2_5R1PRk5aAiY4Urt-153" vertex="1">
          <mxGeometry y="1186" width="1020" height="26" as="geometry" />
        </mxCell>
        <mxCell id="l1Z2_5R1PRk5aAiY4Urt-204" value="+ Awake()&lt;span style=&quot;color: rgba(0, 0, 0, 0); font-family: monospace; font-size: 0px; text-wrap: nowrap;&quot;&gt;%3CmxGraphModel%3E%3Croot%3E%3CmxCell%20id%3D%220%22%2F%3E%3CmxCell%20id%3D%221%22%20parent%3D%220%22%2F%3E%3CmxCell%20id%3D%222%22%20value%3D%22%2B%20controlsPanel%3A%20GameObject%22%20style%3D%22text%3BstrokeColor%3Dnone%3BfillColor%3Dnone%3Balign%3Dleft%3BverticalAlign%3Dtop%3BspacingLeft%3D4%3BspacingRight%3D4%3Boverflow%3Dhidden%3Brotatable%3D0%3Bpoints%3D%5B%5B0%2C0.5%5D%2C%5B1%2C0.5%5D%5D%3BportConstraint%3Deastwest%3BwhiteSpace%3Dwrap%3Bhtml%3D1%3B%22%20vertex%3D%221%22%20parent%3D%221%22%3E%3CmxGeometry%20x%3D%2290%22%20y%3D%221220%22%20width%3D%22260%22%20height%3D%2224%22%20as%3D%22geometry%22%2F%3E%3C%2FmxCell%3E%3C%2Froot%3E%3C%2FmxGraphModel%&lt;/span&gt;" style="text;strokeColor=none;fillColor=none;align=left;verticalAlign=top;spacingLeft=4;spacingRight=4;overflow=hidden;rotatable=0;points=[[0,0.5],[1,0.5]];portConstraint=eastwest;whiteSpace=wrap;html=1;" parent="l1Z2_5R1PRk5aAiY4Urt-153" vertex="1">
          <mxGeometry y="1212" width="1020" height="26" as="geometry" />
        </mxCell>
        <mxCell id="l1Z2_5R1PRk5aAiY4Urt-205" value="+ FindActiveChildObject(parent: Transform): GameObject&lt;span style=&quot;color: rgba(0, 0, 0, 0); font-family: monospace; font-size: 0px; text-wrap: nowrap;&quot;&gt;%3CmxGraphModel%3E%3Croot%3E%3CmxCell%20id%3D%220%22%2F%3E%3CmxCell%20id%3D%221%22%20parent%3D%220%22%2F%3E%3CmxCell%20id%3D%222%22%20value%3D%22%2B%20controlsPanel%3A%20GameObject%22%20style%3D%22text%3BstrokeColor%3Dnone%3BfillColor%3Dnone%3Balign%3Dleft%3BverticalAlign%3Dtop%3BspacingLeft%3D4%3BspacingRight%3D4%3Boverflow%3Dhidden%3Brotatable%3D0%3Bpoints%3D%5B%5B0%2C0.5%5D%2C%5B1%2C0.5%5D%5D%3BportConstraint%3Deastwest%3BwhiteSpace%3Dwrap%3Bhtml%3D1%3B%22%20vertex%3D%221%22%20parent%3D%221%22%3E%3CmxGeometry%20x%3D%2290%22%20y%3D%221220%22%20width%3D%22260%22%20height%3D%2224%22%20as%3D%22geometry%22%2F%3E%3C%2FmxCell%3E%3C%2Froot%3E%3C%2FmxGraphModel%3E&lt;/span&gt;" style="text;strokeColor=none;fillColor=none;align=left;verticalAlign=top;spacingLeft=4;spacingRight=4;overflow=hidden;rotatable=0;points=[[0,0.5],[1,0.5]];portConstraint=eastwest;whiteSpace=wrap;html=1;" parent="l1Z2_5R1PRk5aAiY4Urt-153" vertex="1">
          <mxGeometry y="1238" width="1020" height="26" as="geometry" />
        </mxCell>
        <mxCell id="l1Z2_5R1PRk5aAiY4Urt-206" value="+ Update&lt;span style=&quot;color: rgba(0, 0, 0, 0); font-family: monospace; font-size: 0px; text-wrap: nowrap;&quot;&gt;%3CmxGraphModel%3E%3Croot%3E%3CmxCell%20id%3D%220%22%2F%3E%3CmxCell%20id%3D%221%22%20parent%3D%220%22%2F%3E%3CmxCell%20id%3D%222%22%20value%3D%22%2B%20Awake()%26lt%3Bspan%20style%3D%26quot%3Bcolor%3A%20rgba(0%2C%200%2C%200%2C%200)%3B%20font-family%3A%20monospace%3B%20font-size%3A%200px%3B%20text-wrap%3A%20nowrap%3B%26quot%3B%26gt%3B%253CmxGraphModel%253E%253Croot%253E%253CmxCell%2520id%253D%25220%2522%252F%253E%253CmxCell%2520id%253D%25221%2522%2520parent%253D%25220%2522%252F%253E%253CmxCell%2520id%253D%25222%2522%2520value%253D%2522%252B%2520controlsPanel%253A%2520GameObject%2522%2520style%253D%2522text%253BstrokeColor%253Dnone%253BfillColor%253Dnone%253Balign%253Dleft%253BverticalAlign%253Dtop%253BspacingLeft%253D4%253BspacingRight%253D4%253Boverflow%253Dhidden%253Brotatable%253D0%253Bpoints%253D%255B%255B0%252C0.5%255D%252C%255B1%252C0.5%255D%255D%253BportConstraint%253Deastwest%253BwhiteSpace%253Dwrap%253Bhtml%253D1%253B%2522%2520vertex%253D%25221%2522%2520parent%253D%25221%2522%253E%253CmxGeometry%2520x%253D%252290%2522%2520y%253D%25221220%2522%2520width%253D%2522260%2522%2520height%253D%252224%2522%2520as%253D%2522geometry%2522%252F%253E%253C%252FmxCell%253E%253C%252Froot%253E%253C%252FmxGraphModel%25%26lt%3B%2Fspan%26gt%3B%22%20style%3D%22text%3BstrokeColor%3Dnone%3BfillColor%3Dnone%3Balign%3Dleft%3BverticalAlign%3Dtop%3BspacingLeft%3D4%3BspacingRight%3D4%3Boverflow%3Dhidden%3Brotatable%3D0%3Bpoints%3D%5B%5B0%2C0.5%5D%2C%5B1%2C0.5%5D%5D%3BportConstraint%3Deastwest%3BwhiteSpace%3Dwrap%3Bhtml%3D1%3B%22%20vertex%3D%221%22%20parent%3D%221%22%3E%3CmxGeometry%20x%3D%2290%22%20y%3D%221302%22%20width%3D%22400%22%20height%3D%2226%22%20as%3D%22geometry%22%2F%3E%3C%2FmxCell%3E%3C%2Froot%3E%3C%2FmxGraphModel%3E&lt;/span&gt;()&lt;span style=&quot;color: rgba(0, 0, 0, 0); font-family: monospace; font-size: 0px; text-wrap: nowrap;&quot;&gt;%3CmxGraphModel%3E%3Croot%3E%3CmxCell%20id%3D%220%22%2F%3E%3CmxCell%20id%3D%221%22%20parent%3D%220%22%2F%3E%3CmxCell%20id%3D%222%22%20value%3D%22%2B%20controlsPanel%3A%20GameObject%22%20style%3D%22text%3BstrokeColor%3Dnone%3BfillColor%3Dnone%3Balign%3Dleft%3BverticalAlign%3Dtop%3BspacingLeft%3D4%3BspacingRight%3D4%3Boverflow%3Dhidden%3Brotatable%3D0%3Bpoints%3D%5B%5B0%2C0.5%5D%2C%5B1%2C0.5%5D%5D%3BportConstraint%3Deastwest%3BwhiteSpace%3Dwrap%3Bhtml%3D1%3B%22%20vertex%3D%221%22%20parent%3D%221%22%3E%3CmxGeometry%20x%3D%2290%22%20y%3D%221220%22%20width%3D%22260%22%20height%3D%2224%22%20as%3D%22geometry%22%2F%3E%3C%2FmxCell%3E%3C%2Froot%3E%3C%2FmxGraphModel%&lt;/span&gt;" style="text;strokeColor=none;fillColor=none;align=left;verticalAlign=top;spacingLeft=4;spacingRight=4;overflow=hidden;rotatable=0;points=[[0,0.5],[1,0.5]];portConstraint=eastwest;whiteSpace=wrap;html=1;" parent="l1Z2_5R1PRk5aAiY4Urt-153" vertex="1">
          <mxGeometry y="1264" width="1020" height="26" as="geometry" />
        </mxCell>
        <mxCell id="l1Z2_5R1PRk5aAiY4Urt-207" value="+ FixedUpdate()&lt;span style=&quot;color: rgba(0, 0, 0, 0); font-family: monospace; font-size: 0px; text-wrap: nowrap;&quot;&gt;%3CmxGraphModel%3E%3Croot%3E%3CmxCell%20id%3D%220%22%2F%3E%3CmxCell%20id%3D%221%22%20parent%3D%220%22%2F%3E%3CmxCell%20id%3D%222%22%20value%3D%22%2B%20controlsPanel%3A%20GameObject%22%20style%3D%22text%3BstrokeColor%3Dnone%3BfillColor%3Dnone%3Balign%3Dleft%3BverticalAlign%3Dtop%3BspacingLeft%3D4%3BspacingRight%3D4%3Boverflow%3Dhidden%3Brotatable%3D0%3Bpoints%3D%5B%5B0%2C0.5%5D%2C%5B1%2C0.5%5D%5D%3BportConstraint%3Deastwest%3BwhiteSpace%3Dwrap%3Bhtml%3D1%3B%22%20vertex%3D%221%22%20parent%3D%221%22%3E%3CmxGeometry%20x%3D%2290%22%20y%3D%221220%22%20width%3D%22260%22%20height%3D%2224%22%20as%3D%22geometry%22%2F%3E%3C%2FmxCell%3E%3C%2Froot%3E%3C%2FmxGraphModel%&lt;/span&gt;" style="text;strokeColor=none;fillColor=none;align=left;verticalAlign=top;spacingLeft=4;spacingRight=4;overflow=hidden;rotatable=0;points=[[0,0.5],[1,0.5]];portConstraint=eastwest;whiteSpace=wrap;html=1;" parent="l1Z2_5R1PRk5aAiY4Urt-153" vertex="1">
          <mxGeometry y="1290" width="1020" height="26" as="geometry" />
        </mxCell>
        <mxCell id="l1Z2_5R1PRk5aAiY4Urt-208" value="+ layerActivation(layer0: Integer, layer1: Integer, layer2: Integer, layer3: Integer, layer4: Integer, layer5: Integer, layer6: Integer, layer7: Integer, layer8: Integer, layer9: Integer): GameObject&lt;span style=&quot;color: rgba(0, 0, 0, 0); font-family: monospace; font-size: 0px; text-wrap: nowrap;&quot;&gt;%3CmxGraphModel%3E%3Croot%3E%3CmxCell%20id%3D%220%22%2F%3E%3CmxCell%20id%3D%221%22%20parent%3D%220%22%2F%3E%3CmxCell%20id%3D%222%22%20value%3D%22%2B%20controlsPanel%3A%20GameObject%22%20style%3D%22text%3BstrokeColor%3Dnone%3BfillColor%3Dnone%3Balign%3Dleft%3BverticalAlign%3Dtop%3BspacingLeft%3D4%3BspacingRight%3D4%3Boverflow%3Dhidden%3Brotatable%3D0%3Bpoints%3D%5B%5B0%2C0.5%5D%2C%5B1%2C0.5%5D%5D%3BportConstraint%3Deastwest%3BwhiteSpace%3Dwrap%3Bhtml%3D1%3B%22%20vertex%3D%221%22%20parent%3D%221%22%3E%3CmxGeometry%20x%3D%2290%22%20y%3D%221220%22%20width%3D%22260%22%20height%3D%2224%22%20as%3D%22geometry%22%2F%3E%3C%2FmxCell%3E%3C%2Froot%3E%3C%2FmxGraphModel%3E&lt;/span&gt;" style="text;strokeColor=none;fillColor=none;align=left;verticalAlign=top;spacingLeft=4;spacingRight=4;overflow=hidden;rotatable=0;points=[[0,0.5],[1,0.5]];portConstraint=eastwest;whiteSpace=wrap;html=1;" parent="l1Z2_5R1PRk5aAiY4Urt-153" vertex="1">
          <mxGeometry y="1316" width="1020" height="26" as="geometry" />
        </mxCell>
        <mxCell id="l1Z2_5R1PRk5aAiY4Urt-209" value="+ setMovingAnimationLayer()&lt;span style=&quot;color: rgba(0, 0, 0, 0); font-family: monospace; font-size: 0px; text-wrap: nowrap;&quot;&gt;%3CmxGraphModel%3E%3Croot%3E%3CmxCell%20id%3D%220%22%2F%3E%3CmxCell%20id%3D%221%22%20parent%3D%220%22%2F%3E%3CmxCell%20id%3D%222%22%20value%3D%22%2B%20controlsPanel%3A%20GameObject%22%20style%3D%22text%3BstrokeColor%3Dnone%3BfillColor%3Dnone%3Balign%3Dleft%3BverticalAlign%3Dtop%3BspacingLeft%3D4%3BspacingRight%3D4%3Boverflow%3Dhidden%3Brotatable%3D0%3Bpoints%3D%5B%5B0%2C0.5%5D%2C%5B1%2C0.5%5D%5D%3BportConstraint%3Deastwest%3BwhiteSpace%3Dwrap%3Bhtml%3D1%3B%22%20vertex%3D%221%22%20parent%3D%221%22%3E%3CmxGeometry%20x%3D%2290%22%20y%3D%221220%22%20width%3D%22260%22%20height%3D%2224%22%20as%3D%22geometry%22%2F%3E%3C%2FmxCell%3E%3C%2Froot%3E%3C%2FmxGraphModel%&lt;/span&gt;" style="text;strokeColor=none;fillColor=none;align=left;verticalAlign=top;spacingLeft=4;spacingRight=4;overflow=hidden;rotatable=0;points=[[0,0.5],[1,0.5]];portConstraint=eastwest;whiteSpace=wrap;html=1;" parent="l1Z2_5R1PRk5aAiY4Urt-153" vertex="1">
          <mxGeometry y="1342" width="1020" height="26" as="geometry" />
        </mxCell>
        <mxCell id="l1Z2_5R1PRk5aAiY4Urt-210" value="+ Move()&lt;span style=&quot;color: rgba(0, 0, 0, 0); font-family: monospace; font-size: 0px; text-wrap: nowrap;&quot;&gt;%3CmxGraphModel%3E%3Croot%3E%3CmxCell%20id%3D%220%22%2F%3E%3CmxCell%20id%3D%221%22%20parent%3D%220%22%2F%3E%3CmxCell%20id%3D%222%22%20value%3D%22%2B%20controlsPanel%3A%20GameObject%22%20style%3D%22text%3BstrokeColor%3Dnone%3BfillColor%3Dnone%3Balign%3Dleft%3BverticalAlign%3Dtop%3BspacingLeft%3D4%3BspacingRight%3D4%3Boverflow%3Dhidden%3Brotatable%3D0%3Bpoints%3D%5B%5B0%2C0.5%5D%2C%5B1%2C0.5%5D%5D%3BportConstraint%3Deastwest%3BwhiteSpace%3Dwrap%3Bhtml%3D1%3B%22%20vertex%3D%221%22%20parent%3D%221%22%3E%3CmxGeometry%20x%3D%2290%22%20y%3D%221220%22%20width%3D%22260%22%20height%3D%2224%22%20as%3D%22geometry%22%2F%3E%3C%2FmxCell%3E%3C%2Froot%3E%3C%2FmxGraphModel%&lt;/span&gt;" style="text;strokeColor=none;fillColor=none;align=left;verticalAlign=top;spacingLeft=4;spacingRight=4;overflow=hidden;rotatable=0;points=[[0,0.5],[1,0.5]];portConstraint=eastwest;whiteSpace=wrap;html=1;" parent="l1Z2_5R1PRk5aAiY4Urt-153" vertex="1">
          <mxGeometry y="1368" width="1020" height="26" as="geometry" />
        </mxCell>
        <mxCell id="l1Z2_5R1PRk5aAiY4Urt-211" value="+ Walk()&lt;span style=&quot;color: rgba(0, 0, 0, 0); font-family: monospace; font-size: 0px; text-wrap: nowrap;&quot;&gt;%3CmxGraphModel%3E%3Croot%3E%3CmxCell%20id%3D%220%22%2F%3E%3CmxCell%20id%3D%221%22%20parent%3D%220%22%2F%3E%3CmxCell%20id%3D%222%22%20value%3D%22%2B%20controlsPanel%3A%20GameObject%22%20style%3D%22text%3BstrokeColor%3Dnone%3BfillColor%3Dnone%3Balign%3Dleft%3BverticalAlign%3Dtop%3BspacingLeft%3D4%3BspacingRight%3D4%3Boverflow%3Dhidden%3Brotatable%3D0%3Bpoints%3D%5B%5B0%2C0.5%5D%2C%5B1%2C0.5%5D%5D%3BportConstraint%3Deastwest%3BwhiteSpace%3Dwrap%3Bhtml%3D1%3B%22%20vertex%3D%221%22%20parent%3D%221%22%3E%3CmxGeometry%20x%3D%2290%22%20y%3D%221220%22%20width%3D%22260%22%20height%3D%2224%22%20as%3D%22geometry%22%2F%3E%3C%2FmxCell%3E%3C%2Froot%3E%3C%2FmxGraphModel%&lt;/span&gt;" style="text;strokeColor=none;fillColor=none;align=left;verticalAlign=top;spacingLeft=4;spacingRight=4;overflow=hidden;rotatable=0;points=[[0,0.5],[1,0.5]];portConstraint=eastwest;whiteSpace=wrap;html=1;" parent="l1Z2_5R1PRk5aAiY4Urt-153" vertex="1">
          <mxGeometry y="1394" width="1020" height="26" as="geometry" />
        </mxCell>
        <mxCell id="l1Z2_5R1PRk5aAiY4Urt-212" value="+ Run()&lt;span style=&quot;color: rgba(0, 0, 0, 0); font-family: monospace; font-size: 0px; text-wrap: nowrap;&quot;&gt;%3CmxGraphModel%3E%3Croot%3E%3CmxCell%20id%3D%220%22%2F%3E%3CmxCell%20id%3D%221%22%20parent%3D%220%22%2F%3E%3CmxCell%20id%3D%222%22%20value%3D%22%2B%20controlsPanel%3A%20GameObject%22%20style%3D%22text%3BstrokeColor%3Dnone%3BfillColor%3Dnone%3Balign%3Dleft%3BverticalAlign%3Dtop%3BspacingLeft%3D4%3BspacingRight%3D4%3Boverflow%3Dhidden%3Brotatable%3D0%3Bpoints%3D%5B%5B0%2C0.5%5D%2C%5B1%2C0.5%5D%5D%3BportConstraint%3Deastwest%3BwhiteSpace%3Dwrap%3Bhtml%3D1%3B%22%20vertex%3D%221%22%20parent%3D%221%22%3E%3CmxGeometry%20x%3D%2290%22%20y%3D%221220%22%20width%3D%22260%22%20height%3D%2224%22%20as%3D%22geometry%22%2F%3E%3C%2FmxCell%3E%3C%2Froot%3E%3C%2FmxGraphModel%&lt;/span&gt;" style="text;strokeColor=none;fillColor=none;align=left;verticalAlign=top;spacingLeft=4;spacingRight=4;overflow=hidden;rotatable=0;points=[[0,0.5],[1,0.5]];portConstraint=eastwest;whiteSpace=wrap;html=1;" parent="l1Z2_5R1PRk5aAiY4Urt-153" vertex="1">
          <mxGeometry y="1420" width="1020" height="26" as="geometry" />
        </mxCell>
        <mxCell id="l1Z2_5R1PRk5aAiY4Urt-213" value="+ Idle()&lt;span style=&quot;color: rgba(0, 0, 0, 0); font-family: monospace; font-size: 0px; text-wrap: nowrap;&quot;&gt;%3CmxGraphModel%3E%3Croot%3E%3CmxCell%20id%3D%220%22%2F%3E%3CmxCell%20id%3D%221%22%20parent%3D%220%22%2F%3E%3CmxCell%20id%3D%222%22%20value%3D%22%2B%20controlsPanel%3A%20GameObject%22%20style%3D%22text%3BstrokeColor%3Dnone%3BfillColor%3Dnone%3Balign%3Dleft%3BverticalAlign%3Dtop%3BspacingLeft%3D4%3BspacingRight%3D4%3Boverflow%3Dhidden%3Brotatable%3D0%3Bpoints%3D%5B%5B0%2C0.5%5D%2C%5B1%2C0.5%5D%5D%3BportConstraint%3Deastwest%3BwhiteSpace%3Dwrap%3Bhtml%3D1%3B%22%20vertex%3D%221%22%20parent%3D%221%22%3E%3CmxGeometry%20x%3D%2290%22%20y%3D%221220%22%20width%3D%22260%22%20height%3D%2224%22%20as%3D%22geometry%22%2F%3E%3C%2FmxCell%3E%3C%2Froot%3E%3C%2FmxGraphModel%&lt;/span&gt;" style="text;strokeColor=none;fillColor=none;align=left;verticalAlign=top;spacingLeft=4;spacingRight=4;overflow=hidden;rotatable=0;points=[[0,0.5],[1,0.5]];portConstraint=eastwest;whiteSpace=wrap;html=1;" parent="l1Z2_5R1PRk5aAiY4Urt-153" vertex="1">
          <mxGeometry y="1446" width="1020" height="26" as="geometry" />
        </mxCell>
        <mxCell id="l1Z2_5R1PRk5aAiY4Urt-214" value="+ Jump()&lt;span style=&quot;color: rgba(0, 0, 0, 0); font-family: monospace; font-size: 0px; text-wrap: nowrap;&quot;&gt;%3CmxGraphModel%3E%3Croot%3E%3CmxCell%20id%3D%220%22%2F%3E%3CmxCell%20id%3D%221%22%20parent%3D%220%22%2F%3E%3CmxCell%20id%3D%222%22%20value%3D%22%2B%20controlsPanel%3A%20GameObject%22%20style%3D%22text%3BstrokeColor%3Dnone%3BfillColor%3Dnone%3Balign%3Dleft%3BverticalAlign%3Dtop%3BspacingLeft%3D4%3BspacingRight%3D4%3Boverflow%3Dhidden%3Brotatable%3D0%3Bpoints%3D%5B%5B0%2C0.5%5D%2C%5B1%2C0.5%5D%5D%3BportConstraint%3Deastwest%3BwhiteSpace%3Dwrap%3Bhtml%3D1%3B%22%20vertex%3D%221%22%20parent%3D%221%22%3E%3CmxGeometry%20x%3D%2290%22%20y%3D%221220%22%20width%3D%22260%22%20height%3D%2224%22%20as%3D%22geometry%22%2F%3E%3C%2FmxCell%3E%3C%2Froot%3E%3C%2FmxGraphModel%&lt;/span&gt;" style="text;strokeColor=none;fillColor=none;align=left;verticalAlign=top;spacingLeft=4;spacingRight=4;overflow=hidden;rotatable=0;points=[[0,0.5],[1,0.5]];portConstraint=eastwest;whiteSpace=wrap;html=1;" parent="l1Z2_5R1PRk5aAiY4Urt-153" vertex="1">
          <mxGeometry y="1472" width="1020" height="26" as="geometry" />
        </mxCell>
        <mxCell id="l1Z2_5R1PRk5aAiY4Urt-215" value="+ StartAttack()&lt;span style=&quot;color: rgba(0, 0, 0, 0); font-family: monospace; font-size: 0px; text-wrap: nowrap;&quot;&gt;%3CmxGraphModel%3E%3Croot%3E%3CmxCell%20id%3D%220%22%2F%3E%3CmxCell%20id%3D%221%22%20parent%3D%220%22%2F%3E%3CmxCell%20id%3D%222%22%20value%3D%22%2B%20controlsPanel%3A%20GameObject%22%20style%3D%22text%3BstrokeColor%3Dnone%3BfillColor%3Dnone%3Balign%3Dleft%3BverticalAlign%3Dtop%3BspacingLeft%3D4%3BspacingRight%3D4%3Boverflow%3Dhidden%3Brotatable%3D0%3Bpoints%3D%5B%5B0%2C0.5%5D%2C%5B1%2C0.5%5D%5D%3BportConstraint%3Deastwest%3BwhiteSpace%3Dwrap%3Bhtml%3D1%3B%22%20vertex%3D%221%22%20parent%3D%221%22%3E%3CmxGeometry%20x%3D%2290%22%20y%3D%221220%22%20width%3D%22260%22%20height%3D%2224%22%20as%3D%22geometry%22%2F%3E%3C%2FmxCell%3E%3C%2Froot%3E%3C%2FmxGraphModel%&lt;/span&gt;" style="text;strokeColor=none;fillColor=none;align=left;verticalAlign=top;spacingLeft=4;spacingRight=4;overflow=hidden;rotatable=0;points=[[0,0.5],[1,0.5]];portConstraint=eastwest;whiteSpace=wrap;html=1;" parent="l1Z2_5R1PRk5aAiY4Urt-153" vertex="1">
          <mxGeometry y="1498" width="1020" height="26" as="geometry" />
        </mxCell>
        <mxCell id="l1Z2_5R1PRk5aAiY4Urt-216" value="+ IEnumerator Attack()&lt;span style=&quot;color: rgba(0, 0, 0, 0); font-family: monospace; font-size: 0px; text-wrap: nowrap;&quot;&gt;%3CmxGraphModel%3E%3Croot%3E%3CmxCell%20id%3D%220%22%2F%3E%3CmxCell%20id%3D%221%22%20parent%3D%220%22%2F%3E%3CmxCell%20id%3D%222%22%20value%3D%22%2B%20controlsPanel%3A%20GameObject%22%20style%3D%22text%3BstrokeColor%3Dnone%3BfillColor%3Dnone%3Balign%3Dleft%3BverticalAlign%3Dtop%3BspacingLeft%3D4%3BspacingRight%3D4%3Boverflow%3Dhidden%3Brotatable%3D0%3Bpoints%3D%5B%5B0%2C0.5%5D%2C%5B1%2C0.5%5D%5D%3BportConstraint%3Deastwest%3BwhiteSpace%3Dwrap%3Bhtml%3D1%3B%22%20vertex%3D%221%22%20parent%3D%221%22%3E%3CmxGeometry%20x%3D%2290%22%20y%3D%221220%22%20width%3D%22260%22%20height%3D%2224%22%20as%3D%22geometry%22%2F%3E%3C%2FmxCell%3E%3C%2Froot%3E%3C%2FmxGraphModel%&lt;/span&gt;" style="text;strokeColor=none;fillColor=none;align=left;verticalAlign=top;spacingLeft=4;spacingRight=4;overflow=hidden;rotatable=0;points=[[0,0.5],[1,0.5]];portConstraint=eastwest;whiteSpace=wrap;html=1;" parent="l1Z2_5R1PRk5aAiY4Urt-153" vertex="1">
          <mxGeometry y="1524" width="1020" height="26" as="geometry" />
        </mxCell>
      </root>
    </mxGraphModel>
  </diagram>
</mxfile>
